<?xml version="1.0" encoding="UTF-8" standalone="no"?>
<svg xmlns:dc="http://purl.org/dc/elements/1.1/" xmlns:cc="http://creativecommons.org/ns#" xmlns:rdf="http://www.w3.org/1999/02/22-rdf-syntax-ns#" xmlns:svg="http://www.w3.org/2000/svg" xmlns="http://www.w3.org/2000/svg" xmlns:sodipodi="http://sodipodi.sourceforge.net/DTD/sodipodi-0.dtd" xmlns:inkscape="http://www.inkscape.org/namespaces/inkscape" width="30mm" height="90mm" viewBox="0 0 30 90" version="1.1" id="svg8" sodipodi:docname="sailoruchiha2.svg" inkscape:version="1.0.2-2 (e86c870879, 2021-01-15)">
    <defs id="defs2" />
    <sodipodi:namedview id="base" pagecolor="#ffffff" bordercolor="#666666" borderopacity="1.0" inkscape:pageopacity="0.0" inkscape:pageshadow="2" inkscape:zoom="0.98994949" inkscape:cx="476.35201" inkscape:cy="296.41571" inkscape:document-units="mm" inkscape:current-layer="layer1" showgrid="false" showguides="false" inkscape:window-width="1837" inkscape:window-height="958" inkscape:window-x="1229" inkscape:window-y="1234" inkscape:window-maximized="0" inkscape:document-rotation="0" />
    <metadata id="metadata5">
        <rdf:RDF>
            <cc:Work rdf:about="">
                <dc:format>image/svg+xml</dc:format>
                <dc:type rdf:resource="http://purl.org/dc/dcmitype/StillImage" />
                <dc:title></dc:title>
            </cc:Work>
        </rdf:RDF>
    </metadata>
    <g inkscape:label="Layer 1" inkscape:groupmode="layer" id="layer1" transform="translate(-170,-207)">
        <g id="g1062" style="fill:#602700;fill-opacity:1;stroke:none" transform="matrix(1.1445585,0,0,1.105964,-0.04179204,46.648376)">
            <path sodipodi:nodetypes="aaaaaaaaa" inkscape:connector-curvature="0" id="path1053" d="m 156.54363,186.51057 c -1.43076,4.06777 0.96744,8.74753 -0.0573,12.93605 -0.60129,2.45767 -3.82619,4.24296 -3.47451,6.74856 0.35261,2.51219 2.81346,4.71904 5.21176,5.54584 2.78835,0.96127 6.36192,0.39315 8.74555,-1.34388 3.70779,-2.70199 5.48125,-7.77193 6.15669,-12.30979 0.78665,-5.28499 1.04184,-11.97357 -2.68416,-15.8033 -2.15655,-2.21658 -6.19717,-2.869 -9.10059,-1.80407 -2.41159,0.88453 -3.94512,3.60743 -4.79742,6.03059 z" style="fill:#602700;fill-opacity:1;stroke:none;stroke-width:0.26458332px;stroke-linecap:butt;stroke-linejoin:miter;stroke-opacity:1" />
        </g>
        <path style="fill:#326a3a;fill-opacity:1;stroke:none;stroke-width:0.29768157px;stroke-linecap:butt;stroke-linejoin:miter;stroke-opacity:1" d="m 189.01132,244.69492 c 0,0 -2.59722,-8.07459 -3.35276,-12.22732 -0.35096,-1.92898 -0.66291,-3.89739 -0.54078,-5.8524 0.10443,-1.67087 0.49391,-3.33712 1.08155,-4.91181 0.2899,-0.77687 1.18968,-2.19465 1.18968,-2.19465 l 3.89356,2.29916 c 0,0 -0.95919,2.41106 -1.29786,3.65775 -0.50267,1.8504 -0.99704,3.73199 -1.08153,5.64337 -0.1577,3.56701 0.64877,7.11401 1.08153,10.6597 0.24722,2.02557 0.86523,6.06142 0.86523,6.06142 l -2.05492,0.31352 z" id="path952" inkscape:connector-curvature="0" sodipodi:nodetypes="caasccaaaccc" />
        <path style="fill:#326a3a;fill-opacity:1;stroke:none;stroke-width:0.29768157px;stroke-linecap:butt;stroke-linejoin:miter;stroke-opacity:1" d="m 172.78823,230.9 3.89355,-2.92619 h 1.6223 l 5.1914,9.1966 5.51584,7.52451 -0.2163,3.44874 -2.812,0.10453 c 0,0 -0.76992,-2.06369 -1.29786,-3.0307 -0.98442,-1.80318 -2.10481,-3.55905 -3.46092,-5.12084 -1.52461,-1.75586 -3.63912,-2.96974 -5.19138,-4.70282 -1.23698,-1.38106 -3.24463,-4.49381 -3.24463,-4.49381 z" id="path954" inkscape:connector-curvature="0" sodipodi:nodetypes="cccccccsssc" />
        <path style="fill:#009544;fill-opacity:1;stroke:none;stroke-width:0.29768157px;stroke-linecap:butt;stroke-linejoin:miter;stroke-opacity:1" d="m 181.5487,211.3572 4.86693,2.40366 c 0,0 -0.89812,2.19963 -1.18969,3.34423 -0.62761,2.46373 -1.10213,4.98864 -1.1897,7.5245 -0.0566,1.64227 0.0864,3.30304 0.43262,4.91182 1.35557,6.29863 6.38108,18.28873 6.38108,18.28873 l -4.86692,0.41803 -6.48924,-23.40956 c 0,0 -0.80981,-3.40819 -0.64893,-5.12085 0.27314,-2.90781 2.70385,-8.36056 2.70385,-8.36056 z" id="path956" inkscape:connector-curvature="0" sodipodi:nodetypes="ccssscccsc" />
        <path style="fill:#3cb649;fill-opacity:1;stroke:none;stroke-width:0.29768157px;stroke-linecap:butt;stroke-linejoin:miter;stroke-opacity:1" d="m 188.79502,248.14366 c 0,0 -0.0837,-9.97106 0.86523,-14.83999 0.36498,-1.87288 1.17796,-3.63867 1.83862,-5.43437 0.5046,-1.37153 1.62231,-4.07577 1.62231,-4.07577 l 3.35277,2.19463 c 0,0 -0.38148,1.8243 -0.64892,2.71719 -0.84955,2.83622 -2.258,5.5033 -3.02831,8.36056 -0.95028,3.52482 -1.94678,10.76423 -1.94678,10.76423 z" id="path958" inkscape:connector-curvature="0" sodipodi:nodetypes="cssccsscc" />
        <path style="fill:#3cb649;fill-opacity:1;stroke:none;stroke-width:0.29768157px;stroke-linecap:butt;stroke-linejoin:miter;stroke-opacity:1" d="m 190.84994,247.83014 c 0,0 -4.64036,-8.8585 -6.48924,-13.48141 -1.6811,-4.20344 -4.16392,-12.90661 -4.16392,-12.90661 l -6.70554,-0.15676 c 0,0 1.17389,4.08207 1.94676,6.06139 1.05961,2.71365 2.18884,5.42386 3.67724,7.94254 1.28222,2.16977 3.04171,4.0427 4.48839,6.11366 1.4379,2.05839 4.16393,6.27043 4.16393,6.27043 z" id="path960" inkscape:connector-curvature="0" sodipodi:nodetypes="csccssscc" />
        <path style="opacity:1;fill:#ae9e84;fill-opacity:1;stroke:none;stroke-width:0.29768157px;stroke-linecap:butt;stroke-linejoin:miter;stroke-opacity:1" d="m 181.47493,271.10878 1.95015,-1.95829 2.44725,-0.18473 2.37076,0.48032 1.68248,2.99285 -1.18537,-0.18474 -0.34414,2.06913 -1.72072,-1.441 -2.02664,2.03219 -0.42062,-2.62337 -1.87366,0.62813 0.42062,-1.58881 z" id="path966" inkscape:connector-curvature="0" sodipodi:nodetypes="ccccccccccccc" />
        <path style="fill:#fee1d1;fill-opacity:1;stroke:none;stroke-width:0.29768157px;stroke-linecap:butt;stroke-linejoin:miter;stroke-opacity:1" d="m 182.50737,269.96336 c 0.30998,0.78056 1.03607,1.45361 1.83543,1.77355 0.94207,0.37706 2.06666,0.22638 3.05906,0 0.72119,-0.16451 1.49066,-0.43018 1.98837,-0.96066 0.86175,-0.91846 1.09056,-2.26467 1.3766,-3.47319 0.61025,-2.57843 0.62505,-5.26277 0.68828,-7.90705 0.0625,-2.61221 0.0387,-5.24154 -0.30591,-7.83315 -0.20718,-1.55818 -0.0405,-3.37326 -1.05407,-4.60157 -0.23627,-0.28631 -0.6492,-0.4482 -1.02747,-0.47028 -0.62589,-0.0365 -1.32557,0.16199 -1.78455,0.57479 -0.94662,0.85141 -1.2097,2.24199 -1.48725,3.4625 -0.27925,1.22792 -0.006,2.51947 -0.15296,3.76878 -0.27897,2.39078 -0.82307,4.74844 -1.37657,7.09416 -0.45776,1.93998 -1.28245,3.79898 -1.60601,5.76402 -0.15243,0.92568 -0.50048,1.93299 -0.15295,2.8081 z" id="path962" inkscape:connector-curvature="0" sodipodi:nodetypes="aaaaaaaaaaaaaaa" />
    </g>
</svg>