<?xml version="1.0" encoding="UTF-8" standalone="no"?>
<!-- Created with Inkscape (http://www.inkscape.org/) -->

<svg
   xmlns:dc="http://purl.org/dc/elements/1.1/"
   xmlns:cc="http://creativecommons.org/ns#"
   xmlns:rdf="http://www.w3.org/1999/02/22-rdf-syntax-ns#"
   xmlns:svg="http://www.w3.org/2000/svg"
   xmlns="http://www.w3.org/2000/svg"
   xmlns:sodipodi="http://sodipodi.sourceforge.net/DTD/sodipodi-0.dtd"
   xmlns:inkscape="http://www.inkscape.org/namespaces/inkscape"
   width="210mm"
   height="90mm"
   viewBox="0 0 210 90"
   version="1.1"
   id="svg8"
   sodipodi:docname="sailoruchirra.svg"
   inkscape:version="0.92.5 (2060ec1f9f, 2020-04-08)">
  <defs
     id="defs2" />
  <sodipodi:namedview
     id="base"
     pagecolor="#ffffff"
     bordercolor="#666666"
     borderopacity="1.0"
     inkscape:pageopacity="0.0"
     inkscape:pageshadow="2"
     inkscape:zoom="0.98994949"
     inkscape:cx="476.35201"
     inkscape:cy="296.41571"
     inkscape:document-units="mm"
     inkscape:current-layer="layer1"
     showgrid="false"
     showguides="false"
     inkscape:window-width="1837"
     inkscape:window-height="958"
     inkscape:window-x="1227"
     inkscape:window-y="1165"
     inkscape:window-maximized="0" />
  <metadata
     id="metadata5">
    <rdf:RDF>
      <cc:Work
         rdf:about="">
        <dc:format>image/svg+xml</dc:format>
        <dc:type
           rdf:resource="http://purl.org/dc/dcmitype/StillImage" />
        <dc:title></dc:title>
      </cc:Work>
    </rdf:RDF>
  </metadata>
  <g
     inkscape:label="Layer 1"
     inkscape:groupmode="layer"
     id="layer1"
     transform="translate(0,-207)">
    <path
       style="fill:#3abd00;fill-opacity:1;stroke:none;stroke-width:0.29768157px;stroke-linecap:butt;stroke-linejoin:miter;stroke-opacity:1"
       d="m 42.38591,207.34628 c -0.159932,3e-5 -0.317381,0.0142 -0.463709,0.0395 -0.4725,0.0815 -0.879951,0.43012 -1.190034,0.78413 -0.333473,0.38071 -0.347586,0.95349 -0.648838,1.35851 -0.260468,0.35018 -0.75581,0.51171 -0.973555,0.88814 -0.215603,0.37274 -0.141552,0.84603 -0.270299,1.2545 -0.181397,0.57551 -0.349935,1.17596 -0.702664,1.67171 -0.433512,0.60929 -1.372248,0.83737 -1.676809,1.51567 -0.301335,0.6711 0.357229,1.54966 0,2.19465 -0.122666,0.22148 -0.537458,0.19081 -0.64884,0.41778 -0.15907,0.32418 0.04872,0.71692 0.108241,1.07103 0.05186,0.30863 0.146522,0.60916 0.216475,0.91444 0.05579,0.24348 0.143721,0.4828 0.162064,0.73155 0.03723,0.50504 0.09841,1.0504 -0.108241,1.51567 -0.115728,0.26056 -0.555124,0.34606 -0.595018,0.62697 -0.04618,0.32517 0.248887,0.62188 0.460755,0.87843 0.196982,0.23854 0.63022,0.29491 0.729277,0.58467 0.261916,0.76615 -0.633143,1.54521 -0.595014,2.35123 0.02785,0.58878 0.462096,1.09705 0.595014,1.67228 0.181759,0.78658 -0.368712,1.88588 0.270301,2.40383 0.622839,0.50484 1.65874,-0.39573 2.433296,-0.15716 0.598146,0.18423 0.832595,1.15859 1.46033,1.1499 0.523932,-0.008 0.861274,-0.59801 1.189442,-0.99274 0.144987,-0.17438 0.280164,-0.35705 0.408704,-0.54408 0.198334,0.66551 0.407299,1.3325 0.46785,2.00775 0.101227,1.12886 -0.625219,2.44024 0,3.39885 0.34652,0.53131 1.109997,0.78028 1.759022,0.81327 0.837374,0.0426 1.789069,-0.22952 2.370602,-0.81327 0.296353,-0.29749 0.06927,-0.9006 0.382084,-1.18191 0.651802,-0.58615 1.791261,-0.23177 2.60009,-0.59153 1.176441,-0.52326 2.300274,-1.26091 3.135958,-2.21694 0.882762,-1.00988 1.195338,-2.37851 1.835322,-3.54687 0.806183,-1.47176 1.612224,-2.94697 2.523789,-4.36014 1.114643,-1.72798 4.291671,-3.10337 3.594345,-5.02482 -0.26422,-0.72805 -1.495964,-0.65298 -2.294299,-0.66526 -1.687861,-0.0259 -3.258496,0.85379 -4.894391,1.2562 -1.983267,0.48788 -4.083591,0.62726 -5.965535,1.40424 -1.249945,0.51605 -2.526911,1.14491 -3.435832,2.12149 0.166109,-1.26432 -0.120251,-2.59701 0.270301,-3.81435 0.24167,-0.75326 1.418035,-1.26701 1.243855,-2.03747 -0.107779,-0.47678 -0.929539,-0.45415 -1.243855,-0.83614 -0.24165,-0.29369 -0.458346,-0.67096 -0.432364,-1.04531 0.03187,-0.45915 0.613702,-0.74984 0.702666,-1.20191 0.146192,-0.74291 0.05434,-1.58476 -0.324127,-2.24665 -0.216534,-0.3787 -0.825667,-0.44989 -1.027375,-0.83615 -0.382446,-0.73235 0.380843,-1.82568 -0.162654,-2.45583 -0.285495,-0.33102 -0.786546,-0.45786 -1.266331,-0.4578 z m -12.90167,0.66697 c -0.562971,-0.0134 -1.037242,0.56228 -1.297678,1.04474 -0.585687,1.085 -0.05543,2.46201 -0.324717,3.65774 -0.113952,0.50603 -0.449129,0.95284 -0.540599,1.46311 -0.14152,0.78946 -0.221338,1.63167 0,2.40382 0.112223,0.39151 0.516568,0.65913 0.648839,1.04475 0.626925,1.82775 -0.181841,3.97519 0.595015,5.74837 0.413891,0.9447 1.606084,1.42149 2.054756,2.35125 0.402015,0.83307 -0.09897,1.99276 0.486777,2.71701 0.412474,0.51002 1.192591,0.95648 1.838279,0.78414 1.02203,-0.27279 1.283223,-1.63583 1.838871,-2.50842 0.363407,-0.5707 0.832347,-1.12082 0.973555,-1.77687 0.09571,-0.44468 0.05105,-0.93119 -0.108242,-1.35851 -0.254218,-0.68198 -1.219138,-1.05538 -1.297676,-1.77628 -0.08623,-0.79153 0.866645,-1.40541 0.972962,-2.19466 0.159916,-1.18713 -0.370346,-2.36736 -0.540602,-3.55315 -0.114912,-0.80034 -0.02815,-1.64834 -0.324717,-2.40383 -0.47875,-1.21956 -1.390075,-2.25182 -2.271229,-3.23996 -0.799425,-0.8965 -1.479278,-2.37425 -2.703594,-2.40325 z m -11.518819,13.96916 c -1.25412,0.0242 -2.518944,0.23844 -3.622736,0.76584 -1.074244,0.51329 -2.12559,1.33876 -2.595949,2.40382 -0.113196,0.25631 -0.224286,0.66093 0,0.83614 0.401413,0.31357 0.99855,-0.29032 1.514155,-0.31376 1.232836,-0.056 2.557545,-0.0823 3.677742,0.41835 1.921664,0.85878 3.724745,2.34003 4.650114,4.18012 0.569211,1.13186 -0.01197,2.54667 0.324716,3.76232 0.175108,0.63226 0.293412,1.42618 0.865316,1.77687 0.547908,0.33598 1.332157,-0.20192 1.946517,0 0.559792,0.18398 0.842283,0.87208 1.405917,1.04475 0.825487,0.25291 1.878687,0.36429 2.59595,-0.10464 1.309758,-0.85621 1.614667,-2.68615 1.946516,-4.18013 0.181574,-0.81743 0.216101,-1.69883 0,-2.50841 -0.390927,-1.46451 -1.797092,-2.52955 -2.271233,-3.97093 -0.09888,-0.30063 -0.0076,-0.64047 -0.107648,-0.94073 -0.20285,-0.60871 -0.415175,-1.329 -0.973555,-1.67228 -1.220095,-0.75008 -2.905824,-0.0497 -4.325989,-0.31318 -1.298922,-0.241 -2.46647,-1.05403 -3.78539,-1.14991 -0.409298,-0.0297 -0.826406,-0.0424 -1.244446,-0.0343 z"
       id="path828"
       inkscape:connector-curvature="0" />
    <rect
       style="opacity:1;fill:#934828;fill-opacity:1;stroke:none;stroke-width:0.11250959;stroke-linecap:round;stroke-linejoin:round;stroke-miterlimit:4;stroke-dasharray:none;stroke-dashoffset:0;stroke-opacity:1;paint-order:stroke fill markers"
       id="rect1043"
       width="228.20557"
       height="53.79747"
       x="-0.95050317"
       y="244.1644" />
    <g
       id="g1062"
       style="fill:#602700;fill-opacity:1;stroke:none"
       transform="matrix(1.1445585,0,0,1.105964,-0.04179204,46.648376)">
      <path
         sodipodi:nodetypes="aaaaaaaaaaaaaaa"
         inkscape:connector-curvature="0"
         id="path1045"
         d="m 23.519718,181.13866 c -1.752428,2.10675 -4.930452,3.21883 -5.813112,5.81311 -1.555429,4.57166 -0.985078,10.47179 1.870887,14.36574 1.219916,1.66329 4.043438,1.26711 5.61266,2.60587 1.940888,1.65584 2.298865,4.73565 4.276313,6.34765 1.362482,1.11068 3.123194,1.89591 4.877667,2.00453 1.267299,0.0785 2.961222,0.0479 3.674957,-1.00226 1.02034,-1.50125 0.298954,-3.83605 -0.601356,-5.41221 -0.497113,-0.87029 -2.589461,-0.81885 -2.405427,-1.80407 0.407838,-2.18335 4.461068,-0.74692 6.414468,-1.80407 2.054588,-1.11191 4.272588,-2.50192 5.278575,-4.6104 1.535612,-3.21853 1.823949,-7.42092 0.400905,-10.69078 -1.291789,-2.96827 -4.335818,-5.16674 -7.349914,-6.34765 -4.813985,-1.8861 -10.885016,-2.86234 -15.501632,-0.53454 -0.386144,0.1947 -0.458439,0.73661 -0.734991,1.06908 z"
         style="fill:#602700;fill-opacity:1;stroke:none;stroke-width:0.26458332px;stroke-linecap:butt;stroke-linejoin:miter;stroke-opacity:1" />
      <path
         sodipodi:nodetypes="aaaaaaaaaaaaaaa"
         inkscape:connector-curvature="0"
         id="path1047"
         d="m 53.520723,189.15674 c 0.488162,-2.33644 2.568505,-4.24292 4.610399,-5.47902 3.356176,-2.03173 7.60549,-3.07036 11.49259,-2.53906 1.549902,0.21184 2.985659,1.15217 4.142676,2.20497 1.973792,1.796 3.976169,4.04862 4.409948,6.68174 0.37057,2.24943 -0.69305,4.58837 -1.737252,6.61492 -1.274826,2.47413 -3.573241,4.26831 -5.34539,6.41447 -0.403107,0.48818 -1.193743,0.83694 -1.202714,1.46998 -0.02273,1.60361 2.234834,2.36815 2.939966,3.80859 0.586655,1.19842 1.458205,2.62142 1.00226,3.87541 -0.720169,1.98068 -3.079021,3.25815 -5.144939,3.67496 -2.775395,0.55995 -6.478575,0.309 -8.285353,-1.87089 -2.005286,-2.41939 0.59015,-6.41785 -0.33409,-9.42125 -0.688829,-2.23841 -2.77697,-3.81271 -3.741771,-5.94675 -1.358684,-3.00527 -3.480856,-6.25965 -2.80633,-9.48807 z"
         style="fill:#602700;fill-opacity:1;stroke:none;stroke-width:0.26458332px;stroke-linecap:butt;stroke-linejoin:miter;stroke-opacity:1" />
      <path
         sodipodi:nodetypes="aaaaaaaaa"
         inkscape:connector-curvature="0"
         id="path1049"
         d="m 89.602108,186.55087 c -1.085968,4.17825 1.440252,8.51332 2.204974,12.76212 0.879038,4.88393 -0.256636,10.67717 2.739511,14.633 1.4253,1.88183 4.018269,3.52347 6.347657,3.14042 3.0459,-0.50088 5.18933,-3.77644 6.5481,-6.5481 3.27115,-6.67261 3.59019,-14.72672 2.80633,-22.11656 -0.23711,-2.23534 -0.52111,-4.90674 -2.23346,-6.36304 -3.33299,-2.83461 -8.823765,-3.83301 -12.922623,-2.30226 -2.727826,1.01873 -4.758008,3.97621 -5.490489,6.79442 z"
         style="fill:#602700;fill-opacity:1;stroke:none;stroke-width:0.26458332px;stroke-linecap:butt;stroke-linejoin:miter;stroke-opacity:1" />
      <path
         sodipodi:nodetypes="aaaaaaaaaaaaaa"
         inkscape:connector-curvature="0"
         id="path1051"
         d="m 117.66541,189.42401 c 0.57898,3.53482 -0.23695,7.76323 2.00452,10.55715 1.411,1.75876 4.88855,0.84862 6.21402,2.6727 1.56468,2.15326 -0.26225,5.48342 0.73499,7.95126 1.1338,2.80576 2.86311,5.97542 5.67947,7.08265 2.28358,0.89777 5.25065,0.30564 7.2831,-1.06908 2.86043,-1.93475 5.60883,-5.52313 5.21175,-8.95353 -0.26087,-2.25368 -4.87691,-2.68457 -4.67721,-4.94449 0.17802,-2.01453 3.74956,-1.92962 4.87767,-3.60814 2.6155,-3.89161 4.96912,-9.18647 3.4745,-13.63074 -0.93469,-2.77932 -4.12714,-4.47506 -6.88219,-5.47903 -4.73101,-1.72403 -10.24762,-1.74332 -15.10073,-0.4009 -3.56115,0.98505 -7.80162,2.59399 -9.35443,5.94674 -0.54803,1.18329 0.32376,2.58852 0.53454,3.87541 z"
         style="fill:#602700;fill-opacity:1;stroke:none;stroke-width:0.26458332px;stroke-linecap:butt;stroke-linejoin:miter;stroke-opacity:1" />
      <path
         sodipodi:nodetypes="aaaaaaaaa"
         inkscape:connector-curvature="0"
         id="path1053"
         d="m 156.54363,186.51057 c -1.43076,4.06777 0.96744,8.74753 -0.0573,12.93605 -0.60129,2.45767 -3.82619,4.24296 -3.47451,6.74856 0.35261,2.51219 2.81346,4.71904 5.21176,5.54584 2.78835,0.96127 6.36192,0.39315 8.74555,-1.34388 3.70779,-2.70199 5.48125,-7.77193 6.15669,-12.30979 0.78665,-5.28499 1.04184,-11.97357 -2.68416,-15.8033 -2.15655,-2.21658 -6.19717,-2.869 -9.10059,-1.80407 -2.41159,0.88453 -3.94512,3.60743 -4.79742,6.03059 z"
         style="fill:#602700;fill-opacity:1;stroke:none;stroke-width:0.26458332px;stroke-linecap:butt;stroke-linejoin:miter;stroke-opacity:1" />
    </g>
    <path
       style="fill:#b23667;fill-opacity:1;stroke:none;stroke-width:0.29768157px;stroke-linecap:butt;stroke-linejoin:miter;stroke-opacity:1"
       d="m 41.381007,213.1861 -0.378538,0.94073 c 0,0 -1.583235,9.55866 -2.108579,14.36979 -0.575431,5.26979 -1.141844,14.5211 -1.386991,18.78023 -0.470582,-0.009 -0.942652,-9e-4 -1.414197,0.0245 -0.189867,-3.04014 -0.638538,-9.9444 -1.038617,-13.89313 -0.339845,-3.35422 -0.574486,-6.73551 -1.29768,-10.03251 -0.749637,-3.41757 -3.136549,-10.03309 -3.136549,-10.03309 0,0 0.986518,3.10879 1.29768,4.70307 0.954735,4.89173 1.246941,9.88417 1.730632,14.84015 0.455663,4.66882 1.003691,12.41645 1.151584,14.52411 -0.0873,0.01 -0.174331,0.021 -0.261428,0.032 -0.697808,-2.68008 -2.280778,-8.38733 -3.836844,-11.39788 -1.077811,-2.08525 -2.637068,-3.91954 -4.205922,-5.69008 -1.113802,-1.25699 -3.670644,-3.47316 -3.670644,-3.47316 l -5.12447,-2.36438 3.747534,1.84718 c 0,0 4.995266,4.5692 6.730302,7.38978 1.553493,2.52544 2.330692,5.44366 3.135369,8.27679 0.43985,1.54865 0.880429,3.97838 1.179976,5.75867 -0.0657,0.0139 -0.132138,0.0268 -0.19755,0.0412 -2.405196,0.52944 -5.003229,1.4208 -6.597224,3.23997 -1.709324,1.95079 -2.144459,4.7695 -2.379472,7.31548 -0.177579,1.92379 0.01049,3.95615 0.757078,5.74781 0.587051,1.40895 1.508813,2.80827 2.811834,3.65775 2.13111,1.38933 7.463133,1.88087 7.463133,1.88087 0,0 -0.05088,1.54753 0.107649,2.29925 0.391767,1.85773 0.636675,4.02034 2.055348,5.33002 0.766653,0.70774 2.024796,1.27152 3.02831,0.94072 0.662505,-0.21839 1.189442,-1.67228 1.189442,-1.67228 0,0 -0.880017,0.33851 -1.297678,0.20919 -0.631177,-0.19545 -1.095339,-0.79331 -1.405919,-1.35909 -0.447269,-0.81479 -0.693498,-1.80652 -0.541192,-2.71703 0.164828,-0.98535 1.514155,-2.61241 1.514155,-2.61241 l 1.190033,-0.31377 c 0,0 5.955975,-1.4652 7.894899,-3.55316 1.271543,-1.36927 1.483677,-3.41803 1.838874,-5.22543 0.282808,-1.43904 0.57828,-2.96688 0.216475,-4.38929 -0.408785,-1.60715 -1.477422,-3.0314 -2.595947,-4.28472 -1.540647,-1.72628 -3.299692,-3.50375 -5.516022,-4.2847 -0.24683,-0.0869 -0.49741,-0.16269 -0.74998,-0.23375 0.06805,-1.58304 0.212963,-3.64116 0.534094,-4.93967 1.005203,-4.06457 2.776341,-7.97122 4.921005,-11.6002 1.716281,-2.90411 6.272506,-7.99446 6.272506,-7.99446 0,0 -4.515556,3.91034 -6.272506,6.27017 -2.170529,2.91532 -3.674523,6.26126 -5.137481,9.56272 -0.525045,1.18488 -0.983129,2.40518 -1.297679,3.65776 -0.308547,1.22866 -0.593504,3.10461 -0.800846,4.67104 -0.0962,-0.0137 -0.19261,-0.0265 -0.289228,-0.0383 0.03963,-2.42038 0.103465,-5.63549 0.224759,-7.97732 0.380428,-7.34487 1.254492,-14.65882 1.730634,-21.99848 0.09146,-1.40979 0.215884,-4.2327 0.215884,-4.2327 z"
       id="path826"
       inkscape:connector-curvature="0" />
    <path
       style="fill:#000000;fill-opacity:0.15686275;stroke:none;stroke-width:0.29768157px;stroke-linecap:butt;stroke-linejoin:miter;stroke-opacity:1"
       d="m 49.071852,264.60085 a 31.148341,29.993513 0 0 1 -12.990388,2.77189 31.148341,29.993513 0 0 1 -11.46618,-2.13407 c 0.564387,1.00468 1.314697,1.92768 2.273007,2.55243 2.13111,1.38933 7.463133,1.88088 7.463133,1.88088 0,0 -0.05088,1.54752 0.107649,2.29924 0.391767,1.85773 0.636678,4.02033 2.055348,5.33002 0.766656,0.70774 2.024796,1.27152 3.02831,0.94072 0.662505,-0.21838 1.189442,-1.67228 1.189442,-1.67228 0,-1e-5 -0.880017,0.33851 -1.297678,0.20919 -0.631177,-0.19545 -1.095339,-0.79331 -1.405919,-1.35909 -0.447269,-0.81479 -0.693495,-1.80652 -0.541192,-2.71702 0.164828,-0.98536 1.514155,-2.61242 1.514155,-2.61242 l 1.190033,-0.31377 c 0,0 5.955975,-1.4652 7.894899,-3.55316 0.438589,-0.4723 0.749535,-1.02636 0.985386,-1.62256 z"
       id="path826-3"
       inkscape:connector-curvature="0" />
    <g
       id="g973"
       style="stroke:none"
       transform="matrix(1.1445585,0,0,1.105964,-0.04179204,46.648376)">
      <path
         sodipodi:nodetypes="aaaaaaaaaaaaaaaaaaaaaaaaaaaaaa"
         inkscape:connector-curvature="0"
         id="path948"
         d="m 65.059152,181.859 c 0.303698,-3.88848 0.425194,-7.79294 0.850445,-11.67001 0.189171,-1.7247 0.672178,-3.41691 0.755954,-5.14993 0.04644,-0.96073 -0.421288,-1.96174 -0.141743,-2.88207 0.199566,-0.65702 0.632959,-1.31169 1.228424,-1.65364 0.371017,-0.21306 1.03869,0.21446 1.27567,-0.14175 0.463734,-0.69705 -0.555729,-1.58647 -0.708705,-2.40959 -0.141475,-0.76124 -0.473696,-1.59508 -0.18899,-2.31511 0.25009,-0.63248 0.89308,-1.08797 1.511906,-1.37016 0.360806,-0.16453 0.842488,0.0645 1.181174,-0.14174 0.910304,-0.55438 0.938301,-2.01229 1.795389,-2.64584 0.516771,-0.38199 1.200577,-0.53984 1.842632,-0.56696 0.740715,-0.0313 1.432471,0.44573 2.173364,0.47247 0.556449,0.0201 1.114775,-0.096 1.653646,-0.23624 0.636871,-0.1657 1.185163,-0.68051 1.842633,-0.7087 1.359469,-0.0583 2.831774,0.31904 3.921503,1.13393 0.703257,0.52589 1.129033,1.39117 1.41741,2.22061 0.358692,1.03168 0.549076,2.18983 0.330729,3.26004 -0.176136,0.86332 -0.566005,1.79288 -1.275667,2.31511 -0.430446,0.31676 -1.042659,0.23944 -1.570818,0.32109 -1.216876,0.18812 -2.466398,0.14505 -3.673602,0.38761 -0.322405,0.0648 -0.759183,0.0121 -0.944941,0.28348 -0.339108,0.49538 0.230409,1.20165 0.14174,1.79539 -0.0825,0.55246 -0.307935,1.09201 -0.614212,1.55915 -0.476271,0.72642 -1.138819,1.33356 -1.842632,1.84264 -1.700634,1.23009 -3.9903,1.51514 -5.622396,2.83482 -1.210673,0.97892 -2.311426,2.20897 -2.929321,3.63803 -1.722778,3.98443 1.833811,10.5167 -1.795381,12.89843 -0.245977,0.16143 -0.682298,0.005 -0.850447,-0.23624 -0.54192,-0.7781 0.162403,-1.88948 0.236236,-2.83482 z"
         style="fill:#009544;fill-opacity:1;stroke:none;stroke-width:0.26458332px;stroke-linecap:butt;stroke-linejoin:miter;stroke-opacity:1" />
      <path
         sodipodi:nodetypes="caaaaaaaaaaaaaaccaaaaaaaacc"
         inkscape:connector-curvature="0"
         id="path950"
         d="m 43.089284,156.15662 c 0,0 1.546212,-0.3018 2.315105,-0.47247 1.581139,-0.35097 3.110015,-1.00759 4.724704,-1.13393 1.386054,-0.10845 2.809622,-0.009 4.157736,0.33073 0.417104,0.10515 0.754863,0.46237 1.181177,0.51972 1.278081,0.17192 2.588322,-0.92573 3.827007,-0.56697 0.718667,0.20815 1.228399,0.88452 1.700893,1.46466 0.614376,0.75434 0.679114,1.91778 1.417412,2.55134 0.344116,0.2953 0.903299,0.21371 1.27567,0.47247 0.614419,0.42696 1.258513,0.98165 1.464657,1.70089 0.228292,0.79651 -0.08296,1.68256 -0.377976,2.45685 -0.2473,0.64905 -1.184668,1.05543 -1.13393,1.74814 0.03831,0.52307 0.61859,0.8682 1.039437,1.18118 0.333635,0.24812 0.845474,0.22026 1.133927,0.51971 0.342907,0.35598 0.48173,0.88329 0.566965,1.37016 0.831914,4.75197 -0.661458,14.45759 -0.661458,14.45759 L 65.059152,181.859 c 0,0 -0.487642,-3.17857 -1.13393,-4.63021 -0.557865,-1.25304 -1.225887,-2.56816 -2.315104,-3.40178 -0.344101,-0.26335 -0.880249,-0.16728 -1.228421,-0.42523 -1.20484,-0.89262 -1.408376,-2.7912 -2.645833,-3.63802 -0.712474,-0.48756 -1.738698,-0.26208 -2.504094,-0.66146 -0.60427,-0.31531 -1.264576,-0.70827 -1.559152,-1.32291 -0.510677,-1.06554 0.476892,-2.50927 -0.09449,-3.54353 -1.20819,-2.18695 -4.042569,-2.96248 -6.236607,-4.15774 -1.145882,-0.62425 -3.590774,-1.55915 -3.590774,-1.55915 z"
         style="fill:#009544;fill-opacity:1;stroke:none;stroke-width:0.26458332px;stroke-linecap:butt;stroke-linejoin:miter;stroke-opacity:1" />
      <path
         sodipodi:nodetypes="cccccaaaaaaaaaaaaaaaacc"
         inkscape:connector-curvature="0"
         id="path944"
         d="m 67.090773,184.41034 2.078869,-7.32329 7.181548,-8.59896 3.401785,-1.08668 4.299479,-0.23623 c 0,0 0.306601,-0.25645 0.283482,-0.42523 -0.121245,-0.88513 -1.290013,-1.24996 -2.031621,-1.74814 -0.660681,-0.44382 -1.34977,-0.91131 -2.126118,-1.08668 -1.09113,-0.24648 -2.238495,0.0186 -3.354538,0.0945 -0.584757,0.0398 -1.162039,0.19215 -1.748139,0.18899 -0.666119,-0.004 -1.331376,-0.36783 -1.984375,-0.23623 -0.656821,0.13237 -1.26402,0.52898 -1.748139,0.99219 -0.685118,0.65553 -0.803697,1.77908 -1.511906,2.40959 -0.273595,0.24358 -0.645825,0.35323 -0.992188,0.47247 -0.274582,0.0945 -0.640971,-0.0121 -0.850444,0.18899 -0.575914,0.55296 -0.532982,1.52085 -0.614212,2.31511 -0.05777,0.56489 -0.05579,1.1533 0.09449,1.70089 0.225568,0.82195 0.93303,1.45244 1.181177,2.26786 0.08304,0.27287 0.269885,0.62552 0.09449,0.85044 -0.215034,0.27575 -0.755105,-0.0618 -1.039434,0.14174 -0.343609,0.246 -0.452349,0.72718 -0.566965,1.13393 -0.698817,2.47996 -0.661458,7.70127 -0.661458,7.70127 z"
         style="fill:#3abd00;fill-opacity:1;stroke:none;stroke-width:0.26458332px;stroke-linecap:butt;stroke-linejoin:miter;stroke-opacity:1" />
      <path
         sodipodi:nodetypes="aaaaaaaaaaaaacaaaaaacca"
         inkscape:connector-curvature="0"
         id="path946"
         d="m 63.877975,183.79613 c -0.452355,-1.09883 -1.515911,-1.85877 -2.031622,-2.92932 -0.856307,-1.77759 -1.30062,-3.73757 -1.700892,-5.66964 -0.273442,-1.31987 -0.106767,-2.71866 -0.472472,-4.016 -0.244716,-0.86813 -0.973127,-1.56933 -1.133927,-2.45684 -0.07602,-0.41956 0.03393,-0.8536 0.09449,-1.27567 0.160136,-1.11603 1.165158,-2.27636 0.708705,-3.30729 -0.228561,-0.51622 -0.9748,-0.56981 -1.464657,-0.85045 -0.361031,-0.20684 -0.798639,-0.31395 -1.08668,-0.61421 -0.526604,-0.54895 -0.459807,-1.53899 -1.039434,-2.03162 -0.352939,-0.29997 -0.86174,-0.38207 -1.322917,-0.42523 -0.505681,-0.0473 -1.004085,0.19739 -1.511906,0.18899 -1.004472,-0.0166 -1.989601,-0.65994 -2.976562,-0.47247 -0.700541,0.13307 -1.842636,1.08668 -1.842636,1.08668 0,0 0.172529,1.60594 0.708708,2.12612 0.826093,0.80144 2.311385,0.41521 3.307292,0.99219 1.445899,0.83768 2.610248,2.13145 3.638021,3.44903 1.145015,1.46788 2.00633,3.1556 2.740326,4.86644 0.571568,1.33225 0.977522,2.73905 1.27567,4.15774 0.361988,1.72246 0.06165,3.57332 0.614212,5.24442 0.416402,1.25932 1.984375,3.44903 1.984375,3.44903 l 1.795386,0.0945 c 0,0 -0.07649,-1.1036 -0.28348,-1.6064 z"
         style="fill:#3cb649;fill-opacity:1;stroke:none;stroke-width:0.26458332px;stroke-linecap:butt;stroke-linejoin:miter;stroke-opacity:1" />
    </g>
    <path
       style="fill:#3abd00;fill-opacity:1;stroke:none;stroke-width:0.29768157px;stroke-linecap:butt;stroke-linejoin:miter;stroke-opacity:1"
       d="m 130.88593,211.1412 -0.76478,0.51722 -0.45896,1.10819 -0.42054,0.29547 -0.0763,-0.81271 0.91737,-0.9973 -0.87951,0.40635 -0.34364,0.59095 -0.19164,0.92358 -0.34423,0.18518 -0.19105,-1.14591 0.15321,-0.77554 -0.68848,1.03445 -0.34424,0.22175 0.11475,1.21905 -0.0378,1.29337 -0.72691,0.73897 -0.26734,-0.59096 0.19105,-1.55225 v -0.81271 l -0.38268,-0.70183 -0.95582,0.14746 -0.84106,1.18248 -0.19104,0.14803 0.0763,-1.25621 -0.80321,-0.0372 -0.80262,-0.29547 -0.53529,0.77556 -0.30637,0.84985 -0.38209,-0.9973 -0.87952,0.3692 -0.49742,1.0716 0.0385,1.29336 -0.68846,-0.55438 -0.57314,0.44351 0.45839,1.36708 -1.52954,-0.70183 0.2295,0.66468 0.84165,0.92414 0.0378,1.40367 -0.38209,-0.0737 -0.65003,-1.25621 h -0.45897 l -1.109,-0.55438 0.42054,0.84986 0.49742,0.77612 -0.34424,0.14745 0.19105,0.36979 0.8032,0.22174 0.72634,0.51723 -0.22951,0.88643 -0.53527,0.0743 -0.0385,-1.03446 -0.76477,-0.0372 -0.38208,-0.73899 0.0763,-0.66524 -0.95582,-1.29336 -1.2616,-1.95803 -0.30639,0.29548 1.07115,2.18035 0.4584,2.5124 0.9564,2.32783 1.56738,1.99518 -0.0378,0.4435 -0.57373,1.2928 -0.61217,1.77342 -1.1853,0.0743 1.07055,-1.14532 0.26794,-0.88701 -0.42053,-0.48009 -1.10901,-0.14802 -0.57372,-0.73898 v -1.99519 l -0.61157,-1.3305 -0.72633,-0.55381 -0.30638,0.48009 -0.68788,0.2589 0.3058,-0.70241 1.33849,-1.4408 0.26734,-1.55168 -0.38209,-1.03447 -0.91795,0.62811 v 1.03445 l -0.49684,-0.48065 -0.53528,-0.3692 0.30579,1.29335 0.15261,1.1082 -0.26735,-0.14804 -0.65002,-1.40366 -0.49743,-0.33262 -0.0763,0.62811 -0.26793,0.1846 -0.49683,-0.6647 -0.11475,0.40636 0.0385,2.8079 -0.65001,0.22175 -0.72692,0.88701 -0.19105,0.59094 -0.42053,-0.73897 0.84108,-1.40423 -0.65003,-0.51724 -0.19105,0.59154 -0.26793,-1.10875 -0.49683,-0.29549 -0.11474,0.70183 -0.45898,-0.33263 -0.19104,-0.99731 -0.87952,-0.84985 -0.0763,0.4435 -0.9564,-0.77612 -0.84106,0.18459 -0.0384,0.73898 0.0769,0.6281 -0.65002,-0.84984 -0.76477,-0.14746 H 102.016 l 0.15319,0.48009 0.45897,0.55437 -0.45897,0.29548 0.61157,0.55437 0.0769,0.77614 0.99425,0.0366 0.49683,0.7024 v 0.92359 l 1.2616,-0.96073 1.30064,1.10818 0.42053,0.73897 -1.109,-0.70181 0.80262,1.03444 0.0769,0.6281 -1.26219,-0.92357 -2.60008,-1.51511 -1.03211,-1.32994 -0.61217,-2.06891 -0.84107,-0.88701 -2.753276,-0.0372 -1.223748,0.59153 -1.873175,1.99519 v 2.66044 l 0.95581,0.84985 0.726322,-0.0743 -0.229489,0.88701 0.573723,0.29548 1.605832,-0.59097 0.726915,0.18461 -1.223745,1.32993 -0.573723,0.48066 -0.114747,0.66524 0.03844,0.25834 1.300043,-0.51723 1.911628,-1.32994 1.83591,-0.70241 2.40845,-0.55437 0.53587,0.33263 -0.0769,0.40635 -1.79688,0.22175 c 0,0 -0.99428,0.18484 -1.109,0.33263 -0.11471,0.1478 -0.22949,0.81328 -0.22949,0.81328 l -0.11474,0.92358 -1.33849,-0.29548 -0.19105,-0.6281 -0.34423,0.25833 h -0.764769 l -0.764766,0.62811 v 0.51722 l -0.229489,0.48065 -1.185298,0.14744 -0.1526,0.55438 0.458385,0.14803 -0.420531,0.59096 0.80321,-0.51723 2.944328,-1.18248 2.79113,-0.73897 1.30005,-0.18461 0.80321,1.21905 0.91795,1.03504 -0.45897,0.11026 -0.0763,1.3305 0.26734,0.33262 0.57372,-0.96072 0.99426,1.14533 -0.11475,0.92359 -2.10325,-1.44082 -1.2616,-1.84773 -1.56798,-0.62811 -0.42053,0.55437 -1.37694,-0.40634 -1.376345,0.70182 -2.06481,1.21963 0.03844,0.70184 c 0,0 1.644134,0.36939 1.835324,0.40634 0.191193,0.037 2.600091,0.0737 2.600091,0.0737 l 1.45324,0.29606 0.76476,0.33205 1.64428,-0.29548 1.03211,0.2589 0.61217,0.73898 -2.25645,0.14745 -1.83532,0.0372 -1.0327,0.92358 4.09177,0.14803 1.83532,0.14803 0.72691,0.51722 0.45839,0.59096 1.95005,2.77132 0.53588,1.55167 0.76477,2.99307 0.42054,2.62329 0.68787,0.14745 -0.1526,-1.47795 -1.14744,-5.13571 0.65001,-2.54956 0.15319,-1.14534 0.80322,2.21694 0.80262,2.03234 -0.38209,5.98556 0.65002,0.14802 0.57312,-5.83811 c 0,0 1.72118,-2.69729 1.72118,-3.06679 0,-0.36949 1.79688,-2.58613 1.79688,-2.58613 l 1.87377,-0.84985 2.06481,-0.25891 1.52954,0.48007 0.26793,-0.22116 -0.91797,-0.44351 2.52379,-0.18461 -0.38267,-0.66525 -1.22315,-0.29548 -0.76478,0.55381 -0.76476,-0.0366 0.91737,-0.51723 0.34424,-0.55438 -1.22375,-0.0372 -0.95581,0.62811 -1.79688,0.92415 -0.49743,-0.0743 2.10325,-1.77344 1.18531,-0.25832 1.75903,0.22118 1.14684,0.40692 0.45898,-0.36978 -0.99425,-0.55437 1.22375,0.11087 0.65002,-0.29547 -0.57373,-0.29548 0.65003,-0.29548 0.57371,-0.29604 1.14746,0.73898 0.30578,-0.22118 -0.61217,-0.59153 1.18589,0.66525 1.45266,-0.29548 0.9558,-0.33261 -1.5674,-0.77614 0.95583,-0.0737 1.14745,0.29547 1.14684,-0.51722 -1.56798,-1.21906 -0.9558,0.55381 -0.38209,-0.14745 0.61158,-0.40636 -0.91796,-1.21963 -0.0763,-0.55437 2.218,1.03503 1.41479,0.11087 -1.07054,-0.99788 0.57311,-0.48007 -1.37633,0.14744 -0.61158,-0.29547 -0.45897,-0.77613 0.53527,-0.40635 0.0385,-0.55438 -1.22375,-0.40635 -0.61217,0.36977 -0.49683,-0.0372 -0.53527,0.48065 -0.0763,-1.10876 -0.76478,1.21964 -0.53527,0.44292 -0.72691,-0.22174 -0.26734,-0.99731 0.65001,-0.84986 -0.0385,-0.29547 -0.42055,-0.0372 -0.34422,0.55437 -0.34424,0.0737 -0.80262,-0.3692 -0.19164,0.11087 -0.11474,-0.36978 h -0.30588 l -0.0763,-0.48008 -0.42054,0.11088 -0.53527,0.44293 -0.30639,-0.25833 0.57372,-0.55438 -0.84106,0.14803 -1.07056,0.44293 -0.8032,0.40693 -0.0763,-0.66526 1.37634,-0.66525 1.87377,-0.0367 2.63854,0.36921 2.52379,0.73899 2.06481,1.14531 1.68212,0.92417 0.2295,-0.48066 -0.68788,-0.73897 -0.95641,-0.92358 -0.80262,-0.40636 -0.26793,-0.70241 0.57372,-0.40635 0.76478,0.22176 1.26159,0.51722 0.61218,-0.1846 0.42053,-0.55438 -1.14746,-0.84984 0.19163,-0.3692 1.37635,-0.44351 0.49742,-1.95861 1.45266,-2.06891 -1.68214,-0.25833 -1.07115,0.25833 -0.19105,0.29548 -0.61157,-0.0367 0.45899,-1.03503 -0.84167,-0.81272 -0.76475,0.36978 -0.57314,0.25833 -0.68847,0.29548 -0.26794,0.48065 -1.0321,1.32994 -0.34425,0.14802 0.22951,-1.07161 0.8795,-1.21905 0.87952,-1.21964 -0.11476,-0.84985 z m -5.44919,4.82136 0.86059,0.62811 -1.83533,1.44138 -0.49742,-0.49894 0.30579,-1.12705 z m 1.33849,0.81328 0.87951,0.46178 -0.34423,0.49838 -1.56798,0.16631 0.36376,-0.31377 z m -4.68442,0.53552 0.68847,0.25832 1.03271,0.96073 -0.49743,1.07162 -1.03211,0.48064 -1.22375,0.96073 -0.38268,0.11087 -0.11474,-0.887 1.49168,-1.44081 -0.22948,-0.2589 -1.72059,1.55168 -0.22948,-0.51721 z m 9.49069,0.68182 h 0.43295 v 0.83614 l -0.75708,0.26118 -1.19003,-0.26118 z m -7.6246,5.87868 3.94744,0.62696 2.48771,1.22821 -0.2975,0.62695 -0.2703,-0.31376 -0.73047,-0.0783 -1.16223,0.34005 -1.27106,1.22762 -0.27031,-0.23489 0.81091,-1.35851 -0.0811,-0.81042 -0.78428,0.94074 -1.94652,0.86242 -0.13545,1.14934 -1.13562,0.91443 -0.0538,-0.39207 -0.48678,-1.61969 -0.59443,1.3848 0.43237,0.67897 -0.2431,1.43738 -1.8927,1.61969 0.62164,-1.28021 -0.2975,-0.0783 -1.29768,0.54865 1.21663,-1.09733 0.29751,-0.88814 0.67606,-0.52295 0.2703,-2.27294 -0.56781,0.0263 -0.40576,1.3848 -0.70264,0.36578 0.0267,-0.31376 -0.59442,-0.47037 -0.89252,1.64598 -0.62163,-0.46978 -0.2709,-0.83614 1.24387,-2.53471 1.10899,-0.91443 z m -14.63764,3.71147 0.7074,0.14745 1.43431,1.60713 0.72631,1.49681 -0.93687,-0.49893 -1.01318,-1.38537 z m 7.58025,4.93682 1.32489,2.24665 -2.02756,3.63145 0.2431,-4.38929 -0.0272,-1.41051 z m -4.0557,1.01845 0.51399,0.65325 -0.55302,1.93003 -0.52877,1.28364 c 0.0542,-0.15676 -0.13485,-3.55315 -0.13485,-3.55315 z m -2.27122,0.34006 1.05458,0.62695 0.0811,2.97821 -1.70342,-2.40383 z m 4.92101,0.15658 0.0272,4.10183 -0.24368,0.70526 -1.18944,-3.31769 0.10828,-1.35852 z"
       id="path872"
       inkscape:connector-curvature="0" />
    <path
       style="fill:#f39d00;fill-opacity:1;stroke:none;stroke-width:0.29768157px;stroke-linecap:butt;stroke-linejoin:miter;stroke-opacity:1"
       d="m 107.94288,255.47944 c 0.008,-1.83094 0.22222,-3.75739 1.07068,-5.39453 0.95749,-1.84754 2.32028,-3.85259 4.32118,-4.58148 0.64798,-0.23607 1.40329,0.0238 2.06481,0.22174 2.27674,0.68128 5.12232,1.25402 6.30908,3.25128 0.9908,1.66745 0.0415,3.85916 -0.22943,5.764 -0.32833,2.3084 -0.56089,4.73587 -1.68248,6.79858 -0.15951,0.29337 -0.56542,0.42958 -0.68829,0.73899 -0.32878,0.8279 0.1428,1.78434 0,2.66031 -0.27096,1.66211 -1.42717,3.12963 -1.606,4.80334 -0.0737,0.68999 0.33246,1.38266 0.22943,2.06914 -0.1427,0.95072 -0.81267,1.75564 -1.14715,2.66031 -0.26861,0.72654 -0.2671,1.5615 -0.68829,2.21693 -0.27592,0.42939 -0.63527,0.93063 -1.14714,1.03457 -0.52861,0.10735 -1.18024,-0.11914 -1.52952,-0.51728 -0.76965,-0.87731 -0.34838,-2.27771 -0.61182,-3.39929 -0.18755,-0.79852 -0.58522,-1.55198 -0.68829,-2.36473 -0.10237,-0.80721 0.19002,-1.63281 0.0764,-2.43861 -0.10443,-0.74113 -0.52934,-1.41103 -0.68829,-2.14305 -0.27922,-1.28586 0.004,-2.68126 -0.45885,-3.91657 -0.42624,-1.13695 -1.59854,-1.90763 -2.06487,-3.0298 -0.57944,-1.39436 -0.84759,-2.93128 -0.84124,-4.43385 z"
       id="path905"
       inkscape:connector-curvature="0"
       sodipodi:nodetypes="aaaaaaaaaaaaaaaaaaaaaa" />
    <path
       style="opacity:1;fill:#000000;fill-opacity:0.15686275;stroke:none;stroke-width:0.29768157px;stroke-linecap:butt;stroke-linejoin:miter;stroke-opacity:1"
       d="m 112.37851,263.01699 c 0,0 4.50504,-0.75804 6.04163,-2.21693 1.17505,-1.11564 1.43327,-2.89022 1.83544,-4.43386 0.33194,-1.27411 0.45886,-3.91657 0.45886,-3.91657 0,0 -0.58313,-1.65974 -0.15295,-2.58641 0.24732,-0.53281 0.9942,-1.18237 0.9942,-1.18237 l 0.68828,1.69965 c 0,0 -0.67861,4.09502 -1.07068,6.1335 -0.30419,1.5816 -0.20644,3.31225 -0.9942,4.72945 -0.22175,0.39895 -0.78593,0.55496 -0.99418,0.96067 -0.25152,0.48996 -0.30918,1.08427 -0.22943,1.62574 0.0353,0.24019 0.29844,0.4226 0.30589,0.66508 0.0258,0.84147 -0.63094,1.56979 -0.9177,2.36472 -0.27331,0.75765 -0.67968,1.4927 -0.76477,2.29083 -0.0736,0.69001 0.27563,1.37692 0.22943,2.06914 -0.0423,0.63198 -0.18855,1.2705 -0.45885,1.84743 -0.21878,0.46695 -0.70107,0.78841 -0.91772,1.25626 -0.41673,0.89994 -0.0796,2.09076 -0.68828,2.88202 -0.24522,0.31877 -0.66088,0.5604 -1.07068,0.59118 -0.57113,0.0429 -1.25224,-0.15579 -1.606,-0.59118 -0.63458,-0.78104 -0.38238,-2.95591 -0.38238,-2.95591 l -0.30591,-1.55184 1.22362,0.88676 c 0,0 1.09653,-0.0817 1.52953,-0.36948 0.51275,-0.34081 0.91196,-0.89649 1.07067,-1.47796 0.13715,-0.50244 0.18003,-1.14383 -0.15296,-1.55185 -0.58403,-0.71566 -2.67666,-0.88677 -2.67666,-0.88677 0,0 1.70288,0.24957 2.44723,-0.0738 0.57564,-0.25013 0.99228,-0.79774 1.30011,-1.33016 0.52779,-0.91285 0.96078,-1.99056 0.84124,-3.02981 -0.0609,-0.52982 -0.31096,-1.11941 -0.7694,-1.41595 -1.33903,-0.86615 -4.81338,-0.4315 -4.81338,-0.4315 z"
       id="path907"
       inkscape:connector-curvature="0"
       sodipodi:nodetypes="caacsccaaaaaaaaaaaaacccaaacaaaac" />
    <path
       style="fill:#d42767;fill-opacity:1;stroke:none;stroke-width:0.29768157px;stroke-linecap:butt;stroke-linejoin:miter;stroke-opacity:1"
       d="m 66.186771,262.49971 c -0.591415,-1.18385 -1.004663,-2.53081 -0.917718,-3.84268 0.09382,-1.41556 0.71973,-2.80737 1.529529,-3.99048 0.875123,-1.27853 2.067731,-2.42274 3.459992,-3.15749 1.792289,-0.94586 3.907145,-1.52591 5.946604,-1.42415 1.650863,0.0824 3.292152,0.73607 4.665062,1.62574 1.199158,0.77709 2.057055,1.97526 2.906103,3.1037 0.691675,0.9193 1.523548,1.84233 1.758955,2.9559 0.344257,1.62849 -0.02903,3.38735 -0.611809,4.95115 -0.462379,1.24072 -1.238657,2.40681 -2.217817,3.32539 -1.121798,1.0524 -2.56294,1.78408 -4.016135,2.34154 -0.896908,0.34407 -1.864695,0.57966 -2.829627,0.59119 -0.544917,0.006 -1.084398,-0.14309 -1.606004,-0.29559 -1.548938,-0.45286 -3.183246,-0.87946 -4.472744,-1.82427 -1.532242,-1.12266 -2.758444,-2.68663 -3.594391,-4.35995 z"
       id="path909"
       inkscape:connector-curvature="0"
       sodipodi:nodetypes="aaaaaaaaaaaaaaa" />
    <path
       style="fill:#000000;fill-opacity:0.15686275;stroke:none;stroke-width:0.29768157px;stroke-linecap:butt;stroke-linejoin:miter;stroke-opacity:1"
       d="m 66.04518,255.95486 c -0.421371,0.85614 -0.714445,1.77333 -0.776004,2.70216 -0.08696,1.31187 0.325949,2.65907 0.917365,3.84293 0.835945,1.67331 2.062102,3.2369 3.594346,4.35957 1.289497,0.9448 2.924325,1.37144 4.473262,1.8243 0.521605,0.1525 1.060915,0.30212 1.605832,0.29547 0.964933,-0.0115 1.932672,-0.24689 2.829582,-0.59096 1.453192,-0.55746 2.894262,-1.28912 4.016058,-2.34151 0.979162,-0.91859 1.755624,-2.08499 2.218001,-3.32569 0.582784,-1.56382 0.955835,-3.32263 0.611576,-4.95111 -0.008,-0.0378 -0.02201,-0.0735 -0.03135,-0.11087 -0.490999,1.76171 -1.216928,3.40159 -2.103257,4.72992 -1.167862,1.75024 -2.668214,2.96722 -4.18108,3.89435 -0.93374,0.57223 -1.940949,0.96442 -2.945508,0.9836 -0.567289,0.0114 -1.12905,-0.23847 -1.672076,-0.49209 -1.612542,-0.75317 -3.314167,-1.46233 -4.656618,-3.03365 -1.59516,-1.86711 -2.871348,-4.46855 -3.74162,-7.25147 -0.05492,-0.1756 -0.106785,-0.35526 -0.158514,-0.53495 z"
       id="path909-6"
       inkscape:connector-curvature="0" />
    <path
       style="fill:#ffffff;fill-opacity:1;stroke:none;stroke-width:0.29768157px;stroke-linecap:butt;stroke-linejoin:miter;stroke-opacity:1"
       d="m 72.304883,268.41152 -0.688289,-0.81288 1.835434,-0.1478 0.688288,-1.25625 1.529531,1.47794 1.988385,-1.33015 0.07648,1.47796 1.07067,-0.59118 0.535337,1.10846 c 0,0 -1.028779,0.46019 -1.453054,0.81287 -0.494966,0.41145 -0.977501,0.8936 -1.223622,1.47795 -0.685574,1.62775 -0.535335,5.24673 -0.535335,5.24673 l 1.070671,0.81288 -1.070671,0.36949 c 0,0 0.225926,1.50265 0.611813,2.14302 0.453513,0.75261 1.049297,1.59508 1.911909,1.84745 0.373222,0.10916 0.797758,-0.0543 1.147144,-0.22169 0.517824,-0.24801 1.3001,-1.10847 1.3001,-1.10847 l 0.152954,0.44339 c 0,0 -0.516554,1.00155 -0.994195,1.25626 -0.739552,0.39442 -1.710396,0.44212 -2.523721,0.22169 -0.824726,-0.2235 -1.525593,-0.8349 -2.06486,-1.47795 -0.617638,-0.7365 -0.985993,-1.66669 -1.223622,-2.58642 -0.20414,-0.79011 -0.152955,-2.43862 -0.152955,-2.43862 l -1.070671,0.0738 0.68829,-1.18237 0.458859,-3.25148 c 0,0 -0.09892,-0.96038 -0.382382,-1.33018 -0.39566,-0.51616 -1.682488,-1.03453 -1.682488,-1.03453 z"
       id="path942"
       inkscape:connector-curvature="0"
       sodipodi:nodetypes="cccccccccsscccaaaccssssccccsc" />
    <path
       style="fill:#326a3a;fill-opacity:1;stroke:none;stroke-width:0.29768157px;stroke-linecap:butt;stroke-linejoin:miter;stroke-opacity:1"
       d="m 189.01132,244.69492 c 0,0 -2.59722,-8.07459 -3.35276,-12.22732 -0.35096,-1.92898 -0.66291,-3.89739 -0.54078,-5.8524 0.10443,-1.67087 0.49391,-3.33712 1.08155,-4.91181 0.2899,-0.77687 1.18968,-2.19465 1.18968,-2.19465 l 3.89356,2.29916 c 0,0 -0.95919,2.41106 -1.29786,3.65775 -0.50267,1.8504 -0.99704,3.73199 -1.08153,5.64337 -0.1577,3.56701 0.64877,7.11401 1.08153,10.6597 0.24722,2.02557 0.86523,6.06142 0.86523,6.06142 l -2.05492,0.31352 z"
       id="path952"
       inkscape:connector-curvature="0"
       sodipodi:nodetypes="caasccaaaccc" />
    <path
       style="fill:#326a3a;fill-opacity:1;stroke:none;stroke-width:0.29768157px;stroke-linecap:butt;stroke-linejoin:miter;stroke-opacity:1"
       d="m 172.78823,230.9 3.89355,-2.92619 h 1.6223 l 5.1914,9.1966 5.51584,7.52451 -0.2163,3.44874 -2.812,0.10453 c 0,0 -0.76992,-2.06369 -1.29786,-3.0307 -0.98442,-1.80318 -2.10481,-3.55905 -3.46092,-5.12084 -1.52461,-1.75586 -3.63912,-2.96974 -5.19138,-4.70282 -1.23698,-1.38106 -3.24463,-4.49381 -3.24463,-4.49381 z"
       id="path954"
       inkscape:connector-curvature="0"
       sodipodi:nodetypes="cccccccsssc" />
    <path
       style="fill:#009544;fill-opacity:1;stroke:none;stroke-width:0.29768157px;stroke-linecap:butt;stroke-linejoin:miter;stroke-opacity:1"
       d="m 181.5487,211.3572 4.86693,2.40366 c 0,0 -0.89812,2.19963 -1.18969,3.34423 -0.62761,2.46373 -1.10213,4.98864 -1.1897,7.5245 -0.0566,1.64227 0.0864,3.30304 0.43262,4.91182 1.35557,6.29863 6.38108,18.28873 6.38108,18.28873 l -4.86692,0.41803 -6.48924,-23.40956 c 0,0 -0.80981,-3.40819 -0.64893,-5.12085 0.27314,-2.90781 2.70385,-8.36056 2.70385,-8.36056 z"
       id="path956"
       inkscape:connector-curvature="0"
       sodipodi:nodetypes="ccssscccsc" />
    <path
       style="fill:#3cb649;fill-opacity:1;stroke:none;stroke-width:0.29768157px;stroke-linecap:butt;stroke-linejoin:miter;stroke-opacity:1"
       d="m 188.79502,248.14366 c 0,0 -0.0837,-9.97106 0.86523,-14.83999 0.36498,-1.87288 1.17796,-3.63867 1.83862,-5.43437 0.5046,-1.37153 1.62231,-4.07577 1.62231,-4.07577 l 3.35277,2.19463 c 0,0 -0.38148,1.8243 -0.64892,2.71719 -0.84955,2.83622 -2.258,5.5033 -3.02831,8.36056 -0.95028,3.52482 -1.94678,10.76423 -1.94678,10.76423 z"
       id="path958"
       inkscape:connector-curvature="0"
       sodipodi:nodetypes="cssccsscc" />
    <path
       style="fill:#3cb649;fill-opacity:1;stroke:none;stroke-width:0.29768157px;stroke-linecap:butt;stroke-linejoin:miter;stroke-opacity:1"
       d="m 190.84994,247.83014 c 0,0 -4.64036,-8.8585 -6.48924,-13.48141 -1.6811,-4.20344 -4.16392,-12.90661 -4.16392,-12.90661 l -6.70554,-0.15676 c 0,0 1.17389,4.08207 1.94676,6.06139 1.05961,2.71365 2.18884,5.42386 3.67724,7.94254 1.28222,2.16977 3.04171,4.0427 4.48839,6.11366 1.4379,2.05839 4.16393,6.27043 4.16393,6.27043 z"
       id="path960"
       inkscape:connector-curvature="0"
       sodipodi:nodetypes="csccssscc" />
    <path
       style="opacity:1;fill:#ae9e84;fill-opacity:1;stroke:none;stroke-width:0.29768157px;stroke-linecap:butt;stroke-linejoin:miter;stroke-opacity:1"
       d="m 181.47493,271.10878 1.95015,-1.95829 2.44725,-0.18473 2.37076,0.48032 1.68248,2.99285 -1.18537,-0.18474 -0.34414,2.06913 -1.72072,-1.441 -2.02664,2.03219 -0.42062,-2.62337 -1.87366,0.62813 0.42062,-1.58881 z"
       id="path966"
       inkscape:connector-curvature="0"
       sodipodi:nodetypes="ccccccccccccc" />
    <path
       style="fill:#fee1d1;fill-opacity:1;stroke:none;stroke-width:0.29768157px;stroke-linecap:butt;stroke-linejoin:miter;stroke-opacity:1"
       d="m 182.50737,269.96336 c 0.30998,0.78056 1.03607,1.45361 1.83543,1.77355 0.94207,0.37706 2.06666,0.22638 3.05906,0 0.72119,-0.16451 1.49066,-0.43018 1.98837,-0.96066 0.86175,-0.91846 1.09056,-2.26467 1.3766,-3.47319 0.61025,-2.57843 0.62505,-5.26277 0.68828,-7.90705 0.0625,-2.61221 0.0387,-5.24154 -0.30591,-7.83315 -0.20718,-1.55818 -0.0405,-3.37326 -1.05407,-4.60157 -0.23627,-0.28631 -0.6492,-0.4482 -1.02747,-0.47028 -0.62589,-0.0365 -1.32557,0.16199 -1.78455,0.57479 -0.94662,0.85141 -1.2097,2.24199 -1.48725,3.4625 -0.27925,1.22792 -0.006,2.51947 -0.15296,3.76878 -0.27897,2.39078 -0.82307,4.74844 -1.37657,7.09416 -0.45776,1.93998 -1.28245,3.79898 -1.60601,5.76402 -0.15243,0.92568 -0.50048,1.93299 -0.15295,2.8081 z"
       id="path962"
       inkscape:connector-curvature="0"
       sodipodi:nodetypes="aaaaaaaaaaaaaaa" />
    <path
       style="fill:none;stroke:#000000;stroke-width:0.29768157px;stroke-linecap:butt;stroke-linejoin:miter;stroke-opacity:1"
       d="M 182.50737,269.96336 Z"
       id="path964"
       inkscape:connector-curvature="0" />
    <path
       style="fill:#1ea734;fill-opacity:1;stroke:none;stroke-width:0.29768157px;stroke-linecap:butt;stroke-linejoin:miter;stroke-opacity:1"
       d="m 147.55764,247.129 c 0.09,-1.63013 -0.0196,-3.30093 -0.45885,-4.87723 -0.6286,-2.25599 -1.82015,-4.34888 -3.05905,-6.35521 -0.89606,-1.45112 -1.80095,-2.9724 -3.13554,-4.06437 -0.76567,-0.62649 -1.74417,-0.97243 -2.67668,-1.33015 -1.28227,-0.49191 -3.97676,-1.10846 -3.97676,-1.10846 0,0 0.76443,-0.32097 1.14715,-0.48034 0.44571,-0.18561 0.91657,-0.32216 1.33833,-0.55423 0.50734,-0.27916 0.84861,-0.86013 1.41482,-0.99763 1.34788,-0.32729 2.79292,0.18693 4.12973,0.55423 0.57635,0.15837 1.06123,0.56834 1.64423,0.70205 0.74503,0.17084 1.63288,-0.26198 2.29429,0.11084 0.78192,0.44076 1.01142,1.45337 1.45305,2.21692 0.31148,0.53852 0.42224,1.19722 0.84125,1.6627 0.40369,0.44847 1.14953,0.53022 1.52953,0.99762 0.22671,0.27885 0.33717,0.6457 0.38238,0.99762 0.0585,0.45486 -0.0175,0.92782 -0.15296,1.36711 -0.20834,0.67569 -0.60817,1.28609 -0.99419,1.88438 -0.40459,0.6271 -1.43078,1.03643 -1.37657,1.77355 0.0358,0.48646 0.87753,0.58399 1.07067,1.03456 0.34145,0.79651 0.003,1.72428 0,2.58641 -0.006,1.57652 -0.0383,4.72945 -0.0383,4.72945 l -1.56777,0.0738 c 0,0 0.17384,-0.61014 0.19117,-0.92369 z"
       id="path977"
       inkscape:connector-curvature="0"
       sodipodi:nodetypes="aaaaacaaaaaaaaaaaaaaacca" />
    <path
       style="fill:#009544;fill-opacity:1;stroke:none;stroke-width:0.29768157px;stroke-linecap:butt;stroke-linejoin:miter;stroke-opacity:1"
       d="m 141.42358,224.31607 c -0.48998,-0.92151 -2.00254,-0.79675 -2.86608,-1.41084 -0.83158,-0.59138 -1.6183,-1.29488 -2.16308,-2.14241 -0.7159,-1.11373 -1.81545,-2.47778 -1.35192,-3.70999 0.38652,-1.02753 1.86978,-1.26569 2.92015,-1.6721 1.11629,-0.43193 2.31584,-0.86974 3.51501,-0.78382 1.17837,0.0845 2.15855,0.95425 3.2987,1.25408 1.00368,0.26396 2.18658,-0.0405 3.08238,0.47028 0.531,0.30283 0.80688,0.90682 1.13562,1.41086 0.38683,0.59309 0.58237,1.29059 0.97338,1.88112 0.12442,0.18789 0.23458,0.40794 0.43262,0.52254 0.42464,0.24573 1.0618,-0.0227 1.46008,0.26127 0.34385,0.24515 0.48562,0.69813 0.59485,1.09732 0.1337,0.48862 0.1514,1.01877 0.054,1.51535 -0.10965,0.55953 -0.40333,1.07722 -0.703,1.5676 -0.25482,0.417 -0.85609,0.66919 -0.91931,1.14959 -0.0347,0.26316 0.138,0.53679 0.32447,0.73153 0.29021,0.30308 0.87832,0.2451 1.13561,0.57478 0.32142,0.41183 0.30685,0.99983 0.32447,1.51536 0.0216,0.63271 -0.15156,1.25857 -0.2704,1.88113 -0.13087,0.68559 -0.39349,1.34657 -0.48669,2.03788 -0.21663,1.60713 -0.0408,3.24314 -0.16224,4.85958 -0.20889,2.77981 -0.55543,5.55059 -0.97337,8.3083 -0.13269,0.87555 -0.4867,2.61268 -0.4867,2.61268 l -1.35796,-0.26934 c 0,0 0.63932,-2.97465 0.70904,-4.48572 0.0868,-1.88123 -0.16804,-3.76479 -0.36491,-5.63825 -0.18464,-1.75713 0.15042,-3.71789 -0.76477,-5.24673 -1.31875,-2.20296 -4.50084,-2.77521 -6.23282,-4.69251 -0.49198,-0.54462 -0.98778,-1.165 -1.12759,-1.87519 -0.11239,-0.5711 0.54537,-1.20725 0.27043,-1.72435 z"
       id="path979"
       inkscape:connector-curvature="0"
       sodipodi:nodetypes="aaaaaaaaaaaaaaaaaaaaaaaccaaaaaa" />
    <path
       style="fill:#009544;fill-opacity:1;stroke:none;stroke-width:0.29768157px;stroke-linecap:butt;stroke-linejoin:miter;stroke-opacity:1"
       d="m 150.29216,248.24816 c 0,0 1.01257,-4.31953 2.32536,-6.06141 0.63475,-0.84219 1.64103,-1.36047 2.54162,-1.93337 1.98743,-1.2643 3.96671,-2.72588 6.27293,-3.29197 0.54158,-0.13294 1.19076,0.26711 1.67638,0 0.58301,-0.32068 0.76901,-1.07395 1.02747,-1.67212 0.16507,-0.38206 0.0405,-0.89178 0.32447,-1.20183 1.97868,-2.16061 6.83715,-0.68766 8.32784,-3.18746 0.60965,-1.02235 -6e-5,-2.44305 -0.54076,-3.50099 -0.69993,-1.36951 -1.87051,-2.63735 -3.2987,-3.29196 -1.16045,-0.53189 -2.55882,-0.40809 -3.83947,-0.31352 -0.53619,0.0396 -1.03311,0.41709 -1.56824,0.36578 -0.55374,-0.0531 -0.96774,-0.57756 -1.51414,-0.6793 -0.65588,-0.12209 -1.38052,-0.13475 -2.00085,0.10454 -0.59379,0.22902 -1.02388,0.75018 -1.46008,1.20183 -0.35175,0.36421 -0.48172,0.93844 -0.91932,1.20181 -0.51317,0.30889 -1.2078,0.13821 -1.78453,0.31353 -0.45395,0.13801 -0.98448,0.22871 -1.29785,0.57479 -0.4468,0.49344 -0.57737,1.22568 -0.59485,1.88112 -0.0211,0.78971 0.34707,1.54634 0.59485,2.29916 0.10551,0.32057 0.44206,0.60981 0.37854,0.94056 -0.0489,0.2546 -0.29341,0.47521 -0.54077,0.5748 -0.76615,0.30844 -1.8497,-0.61763 -2.48759,-0.10454 -3.90271,3.13935 -2.10896,14.57873 -2.10896,14.57873 z"
       id="path981"
       inkscape:connector-curvature="0"
       sodipodi:nodetypes="caaaaaaaaaaaaaaaaaaaaaacc" />
    <path
       style="fill:#1ea734;fill-opacity:1;stroke:none;stroke-width:0.29768157px;stroke-linecap:butt;stroke-linejoin:miter;stroke-opacity:1"
       d="m 154.51701,247.94187 c 0,0 0.56486,-2.41657 1.07066,-3.54708 0.85706,-1.9156 2.00931,-3.71299 3.28849,-5.39452 1.28275,-1.68621 2.63895,-3.38406 4.35915,-4.65556 1.2949,-0.95712 2.75593,-1.85714 4.35916,-2.14303 1.66383,-0.29668 5.04745,0.51728 5.04745,0.51728 0,0 -1.14268,-1.92116 -2.06487,-2.51252 -0.94824,-0.60805 -2.15048,-0.87745 -3.28849,-0.88676 -0.60591,-0.004 -1.1663,0.56532 -1.75895,0.44338 -0.63861,-0.13138 -0.87723,-1.155 -1.52954,-1.18236 -0.45912,-0.0192 -0.85091,0.39948 -1.14714,0.73898 -0.32368,0.37094 -0.20654,1.04366 -0.61181,1.33016 -0.55892,0.39511 -1.43622,-0.059 -2.06486,0.22169 -0.54022,0.24123 -1.08695,0.64545 -1.3001,1.18236 -0.3298,0.83082 0.14754,1.77399 0.22943,2.66032 0.0479,0.51756 0.38139,1.08142 0.15296,1.55184 -0.28833,0.59378 -1.29055,0.57297 -1.68249,1.10847 -0.51771,0.70733 -0.36169,1.70568 -0.68828,2.51252 -1.07169,2.64759 -4.12973,7.53755 -4.12973,7.53755 z"
       id="path975"
       inkscape:connector-curvature="0"
       sodipodi:nodetypes="caaaacaaaaaaaaaaaacc" />
    <path
       style="fill:#d42767;fill-opacity:1;stroke:none;stroke-width:0.29768157px;stroke-linecap:butt;stroke-linejoin:miter;stroke-opacity:1"
       d="m 139.22172,257.77025 c -0.37253,-0.97273 -0.45559,-2.08978 -0.22943,-3.1037 0.37253,-1.67001 1.19776,-3.37773 2.52372,-4.50774 2.22329,-1.89473 5.35569,-2.70176 8.2895,-3.11247 1.40773,-0.19708 2.84081,0.17387 4.25264,0.3413 1.65348,0.19609 3.40918,0.12487 4.93273,0.77593 1.08685,0.46444 2.00194,1.28469 2.79139,2.14303 1.09497,1.19055 2.08417,2.55168 2.6002,4.06438 0.28829,0.8451 0.24668,1.77063 0.22942,2.6603 -0.0159,0.81869 -0.13679,1.63628 -0.30591,2.43862 -0.23831,1.13058 -0.0637,2.60241 -0.99419,3.32541 -3.06591,2.38201 -7.85174,0.9877 -11.77736,0.73897 -3.13791,-0.19884 -6.59692,-0.14786 -9.25364,-1.77355 -1.44731,-0.88563 -2.46452,-2.43802 -3.05907,-3.99048 z"
       id="path983"
       inkscape:connector-curvature="0"
       sodipodi:nodetypes="aaaaaaaaaaaaaa" />
    <path
       style="fill:#000000;fill-opacity:0.15686275;stroke:none;stroke-width:0.29768157px;stroke-linecap:butt;stroke-linejoin:miter;stroke-opacity:1"
       d="m 150.86509,246.99281 c -0.35437,-0.01 -0.70739,0.004 -1.05932,0.0537 -2.9338,0.41071 -6.06671,1.21779 -8.29,3.11251 -1.32595,1.13001 -2.15068,2.83758 -2.52319,4.5076 -0.22618,1.01392 -0.14364,2.13063 0.22889,3.10337 0.59455,1.55246 1.61177,3.1053 3.05908,3.99094 2.65671,1.6257 6.11618,1.5746 9.25408,1.77344 3.92563,0.24874 8.71138,1.64305 11.77729,-0.73897 0.93055,-0.723 0.75595,-2.19512 0.99426,-3.32569 0.16911,-0.80236 0.28988,-1.62002 0.30579,-2.4387 0.0173,-0.88968 0.0588,-1.81475 -0.22949,-2.65987 -0.51603,-1.51269 -1.50511,-2.87412 -2.60009,-4.06467 -0.78944,-0.85833 -1.70487,-1.67875 -2.79173,-2.14321 -1.52356,-0.65105 -3.27877,-0.57947 -4.93224,-0.77554 -1.05888,-0.12559 -2.13021,-0.3659 -3.19333,-0.39494 z m -4.88079,4.54647 c 0.92185,0.0156 1.83772,0.17429 2.63144,0.57551 1.04126,0.52636 2.51846,1.44031 2.32566,2.56043 -0.20801,1.20835 -2.05191,1.61 -3.29922,1.82888 -1.65322,0.2901 -3.66729,0.23614 -4.97482,-0.78357 -0.84396,-0.65817 -1.61328,-1.96156 -1.18943,-2.92619 0.40424,-0.92002 1.84137,-1.01042 2.86564,-1.1499 0.53221,-0.0724 1.08763,-0.1145 1.64073,-0.10519 z"
       id="path983-5"
       inkscape:connector-curvature="0" />
    <path
       style="fill:#fee1d1;fill-opacity:1;stroke:none;stroke-width:0.29768157px;stroke-linecap:butt;stroke-linejoin:miter;stroke-opacity:1"
       d="m 144.66821,266.06662 c -1.24403,-0.64823 -2.46554,-1.44507 -3.35278,-2.50817 -1.10336,-1.32207 -1.8281,-2.95477 -2.27122,-4.5983 -0.28236,-1.04719 -0.4134,-2.17446 -0.21632,-3.23972 0.0625,-0.33774 0.0817,-0.88787 0.43262,-0.94058 0.21449,-0.0322 0.33929,0.28093 0.43262,0.4703 0.43189,0.87643 -0.12191,2.10162 0.4867,2.87393 0.75735,0.96109 2.16226,1.62925 3.40684,1.51537 1.08059,-0.0989 1.5872,-1.61475 2.64976,-1.82889 1.19055,-0.23992 2.55692,0.0801 3.56908,0.73156 1.00291,0.6455 1.07699,2.19362 2.05493,2.87395 0.57872,0.40259 1.35541,0.7086 2.05493,0.57478 1.33383,-0.25517 1.843,-2.28054 3.19055,-2.45592 1.36052,-0.17708 2.41406,1.62891 3.78538,1.56762 0.71711,-0.0321 1.4785,-0.42628 1.89269,-0.99283 0.40012,-0.5473 -0.0695,-1.43416 0.32446,-1.98564 0.33021,-0.46228 0.98854,-1.07596 1.51417,-0.83604 0.67791,0.30941 0.37853,2.14239 0.37853,2.14239 0,0 -0.62688,2.9145 -1.51415,4.07577 -0.96359,1.26113 -2.43052,2.14429 -3.89355,2.82169 -1.51003,0.69918 -4.86693,1.20184 -4.86693,1.20184 0,0 0.19864,1.37288 0.054,2.03788 -0.13929,0.64052 -0.58087,1.18258 -0.86522,1.77661 -0.27431,0.57305 -0.72973,1.09791 -0.81116,1.72438 -0.0639,0.49155 -0.0429,1.07097 0.27039,1.46309 0.31547,0.39477 1.40599,0.62704 1.40599,0.62704 l -0.2163,0.41804 c 0,0 -0.83917,0.0873 -1.24378,0 -0.33051,-0.0713 -0.91931,-0.41804 -0.91931,-0.41804 0,0 -0.37242,0.41986 -0.4326,0.6793 -0.1428,0.61562 -0.20995,1.40323 0.21631,1.88113 0.4139,0.46404 1.83861,0.47028 1.83861,0.47028 0,0 -0.73096,0.40023 -1.13563,0.41802 -0.46748,0.0205 -0.97528,-0.0974 -1.35191,-0.36576 -0.53521,-0.38139 -0.91077,-0.99885 -1.08154,-1.61987 -0.25961,-0.94404 -0.0424,-1.9696 0.16222,-2.92619 0.17889,-0.83652 0.84245,-1.55272 0.91932,-2.40367 0.0525,-0.58201 -0.1296,-1.17133 -0.32446,-1.72436 -0.20268,-0.57521 -0.86523,-1.61987 -0.86523,-1.61987 0,0 -3.91693,-0.96347 -5.67803,-1.88112 z"
       id="path1003"
       inkscape:connector-curvature="0"
       sodipodi:nodetypes="aaaaaaaaaaaaaaaaacaacaaasccscsscsssaaaca" />
    <path
       style="fill:#000000;fill-opacity:0.15686275;stroke:none;stroke-width:0.29768157px;stroke-linecap:butt;stroke-linejoin:miter;stroke-opacity:1"
       d="m 152.45224,265.16014 c -3.01447,0.004 -4.5793,-1.87501 -6.11057,0.78028 1.91954,0.8232 4.00471,2.00728 4.00471,2.00728 0,0 0.66263,1.04449 0.8653,1.61969 0.19487,0.55305 0.37667,1.14285 0.32413,1.72486 -0.0769,0.85095 -0.74026,1.56672 -0.91913,2.40325 -0.20459,0.95659 -0.42167,1.98216 -0.16206,2.9262 0.17078,0.62102 0.54598,1.23889 1.08119,1.62026 0.37663,0.26835 0.88462,0.38635 1.35211,0.36577 0.40465,-0.0178 1.1356,-0.41835 1.1356,-0.41835 0,0 -1.42497,-0.006 -1.83887,-0.47036 -0.42626,-0.47789 -0.35868,-1.26526 -0.21589,-1.88087 0.0602,-0.25945 0.43237,-0.67956 0.43237,-0.67956 0,0 0.58862,0.34702 0.91913,0.41836 0.40461,0.0873 1.24387,0 1.24387,0 l 0.21647,-0.41836 c 0,0 -1.09044,-0.23218 -1.40592,-0.62695 -0.31331,-0.39212 -0.33416,-0.97154 -0.2703,-1.46311 0.0815,-0.62644 0.5366,-1.15123 0.81092,-1.72427 0.28434,-0.59404 0.726,-1.13635 0.8653,-1.77687 0.14461,-0.665 -0.0538,-2.03748 -0.0538,-2.03748 0,0 1.13873,-0.46578 2.64878,-1.16496 0.69013,-0.38247 0.81288,-1.09043 0.9198,-1.45595 -1.55112,-2.57357 -2.88684,0.25387 -5.84312,0.25114 z"
       id="path1003-3"
       inkscape:connector-curvature="0"
       sodipodi:nodetypes="ccccccccccccccccccsccccc" />
  </g>
</svg>
