<?xml version="1.0" encoding="UTF-8" standalone="no"?>
<svg xmlns:dc="http://purl.org/dc/elements/1.1/" xmlns:cc="http://creativecommons.org/ns#" xmlns:rdf="http://www.w3.org/1999/02/22-rdf-syntax-ns#" xmlns:svg="http://www.w3.org/2000/svg" xmlns="http://www.w3.org/2000/svg" xmlns:sodipodi="http://sodipodi.sourceforge.net/DTD/sodipodi-0.dtd" xmlns:inkscape="http://www.inkscape.org/namespaces/inkscape" width="55mm" height="90mm" viewBox="0 0 55 90" version="1.1" id="svg8" sodipodi:docname="sailoruchiha2.svg" inkscape:version="1.0.2-2 (e86c870879, 2021-01-15)">
    <defs id="defs2" />
    <sodipodi:namedview id="base" pagecolor="#ffffff" bordercolor="#666666" borderopacity="1.0" inkscape:pageopacity="0.0" inkscape:pageshadow="2" inkscape:zoom="0.98994949" inkscape:cx="476.35201" inkscape:cy="296.41571" inkscape:document-units="mm" inkscape:current-layer="layer1" showgrid="false" showguides="false" inkscape:window-width="1837" inkscape:window-height="958" inkscape:window-x="1229" inkscape:window-y="1234" inkscape:window-maximized="0" inkscape:document-rotation="0" />
    <metadata id="metadata5">
        <rdf:RDF>
            <cc:Work rdf:about="">
                <dc:format>image/svg+xml</dc:format>
                <dc:type rdf:resource="http://purl.org/dc/dcmitype/StillImage" />
                <dc:title></dc:title>
            </cc:Work>
        </rdf:RDF>
    </metadata>
    <g inkscape:label="Layer 1" inkscape:groupmode="layer" id="layer1" transform="translate(-10,-207)">
        <path style="fill:#3abd00;fill-opacity:1;stroke:none;stroke-width:0.29768157px;stroke-linecap:butt;stroke-linejoin:miter;stroke-opacity:1" d="m 42.38591,207.34628 c -0.159932,3e-5 -0.317381,0.0142 -0.463709,0.0395 -0.4725,0.0815 -0.879951,0.43012 -1.190034,0.78413 -0.333473,0.38071 -0.347586,0.95349 -0.648838,1.35851 -0.260468,0.35018 -0.75581,0.51171 -0.973555,0.88814 -0.215603,0.37274 -0.141552,0.84603 -0.270299,1.2545 -0.181397,0.57551 -0.349935,1.17596 -0.702664,1.67171 -0.433512,0.60929 -1.372248,0.83737 -1.676809,1.51567 -0.301335,0.6711 0.357229,1.54966 0,2.19465 -0.122666,0.22148 -0.537458,0.19081 -0.64884,0.41778 -0.15907,0.32418 0.04872,0.71692 0.108241,1.07103 0.05186,0.30863 0.146522,0.60916 0.216475,0.91444 0.05579,0.24348 0.143721,0.4828 0.162064,0.73155 0.03723,0.50504 0.09841,1.0504 -0.108241,1.51567 -0.115728,0.26056 -0.555124,0.34606 -0.595018,0.62697 -0.04618,0.32517 0.248887,0.62188 0.460755,0.87843 0.196982,0.23854 0.63022,0.29491 0.729277,0.58467 0.261916,0.76615 -0.633143,1.54521 -0.595014,2.35123 0.02785,0.58878 0.462096,1.09705 0.595014,1.67228 0.181759,0.78658 -0.368712,1.88588 0.270301,2.40383 0.622839,0.50484 1.65874,-0.39573 2.433296,-0.15716 0.598146,0.18423 0.832595,1.15859 1.46033,1.1499 0.523932,-0.008 0.861274,-0.59801 1.189442,-0.99274 0.144987,-0.17438 0.280164,-0.35705 0.408704,-0.54408 0.198334,0.66551 0.407299,1.3325 0.46785,2.00775 0.101227,1.12886 -0.625219,2.44024 0,3.39885 0.34652,0.53131 1.109997,0.78028 1.759022,0.81327 0.837374,0.0426 1.789069,-0.22952 2.370602,-0.81327 0.296353,-0.29749 0.06927,-0.9006 0.382084,-1.18191 0.651802,-0.58615 1.791261,-0.23177 2.60009,-0.59153 1.176441,-0.52326 2.300274,-1.26091 3.135958,-2.21694 0.882762,-1.00988 1.195338,-2.37851 1.835322,-3.54687 0.806183,-1.47176 1.612224,-2.94697 2.523789,-4.36014 1.114643,-1.72798 4.291671,-3.10337 3.594345,-5.02482 -0.26422,-0.72805 -1.495964,-0.65298 -2.294299,-0.66526 -1.687861,-0.0259 -3.258496,0.85379 -4.894391,1.2562 -1.983267,0.48788 -4.083591,0.62726 -5.965535,1.40424 -1.249945,0.51605 -2.526911,1.14491 -3.435832,2.12149 0.166109,-1.26432 -0.120251,-2.59701 0.270301,-3.81435 0.24167,-0.75326 1.418035,-1.26701 1.243855,-2.03747 -0.107779,-0.47678 -0.929539,-0.45415 -1.243855,-0.83614 -0.24165,-0.29369 -0.458346,-0.67096 -0.432364,-1.04531 0.03187,-0.45915 0.613702,-0.74984 0.702666,-1.20191 0.146192,-0.74291 0.05434,-1.58476 -0.324127,-2.24665 -0.216534,-0.3787 -0.825667,-0.44989 -1.027375,-0.83615 -0.382446,-0.73235 0.380843,-1.82568 -0.162654,-2.45583 -0.285495,-0.33102 -0.786546,-0.45786 -1.266331,-0.4578 z m -12.90167,0.66697 c -0.562971,-0.0134 -1.037242,0.56228 -1.297678,1.04474 -0.585687,1.085 -0.05543,2.46201 -0.324717,3.65774 -0.113952,0.50603 -0.449129,0.95284 -0.540599,1.46311 -0.14152,0.78946 -0.221338,1.63167 0,2.40382 0.112223,0.39151 0.516568,0.65913 0.648839,1.04475 0.626925,1.82775 -0.181841,3.97519 0.595015,5.74837 0.413891,0.9447 1.606084,1.42149 2.054756,2.35125 0.402015,0.83307 -0.09897,1.99276 0.486777,2.71701 0.412474,0.51002 1.192591,0.95648 1.838279,0.78414 1.02203,-0.27279 1.283223,-1.63583 1.838871,-2.50842 0.363407,-0.5707 0.832347,-1.12082 0.973555,-1.77687 0.09571,-0.44468 0.05105,-0.93119 -0.108242,-1.35851 -0.254218,-0.68198 -1.219138,-1.05538 -1.297676,-1.77628 -0.08623,-0.79153 0.866645,-1.40541 0.972962,-2.19466 0.159916,-1.18713 -0.370346,-2.36736 -0.540602,-3.55315 -0.114912,-0.80034 -0.02815,-1.64834 -0.324717,-2.40383 -0.47875,-1.21956 -1.390075,-2.25182 -2.271229,-3.23996 -0.799425,-0.8965 -1.479278,-2.37425 -2.703594,-2.40325 z m -11.518819,13.96916 c -1.25412,0.0242 -2.518944,0.23844 -3.622736,0.76584 -1.074244,0.51329 -2.12559,1.33876 -2.595949,2.40382 -0.113196,0.25631 -0.224286,0.66093 0,0.83614 0.401413,0.31357 0.99855,-0.29032 1.514155,-0.31376 1.232836,-0.056 2.557545,-0.0823 3.677742,0.41835 1.921664,0.85878 3.724745,2.34003 4.650114,4.18012 0.569211,1.13186 -0.01197,2.54667 0.324716,3.76232 0.175108,0.63226 0.293412,1.42618 0.865316,1.77687 0.547908,0.33598 1.332157,-0.20192 1.946517,0 0.559792,0.18398 0.842283,0.87208 1.405917,1.04475 0.825487,0.25291 1.878687,0.36429 2.59595,-0.10464 1.309758,-0.85621 1.614667,-2.68615 1.946516,-4.18013 0.181574,-0.81743 0.216101,-1.69883 0,-2.50841 -0.390927,-1.46451 -1.797092,-2.52955 -2.271233,-3.97093 -0.09888,-0.30063 -0.0076,-0.64047 -0.107648,-0.94073 -0.20285,-0.60871 -0.415175,-1.329 -0.973555,-1.67228 -1.220095,-0.75008 -2.905824,-0.0497 -4.325989,-0.31318 -1.298922,-0.241 -2.46647,-1.05403 -3.78539,-1.14991 -0.409298,-0.0297 -0.826406,-0.0424 -1.244446,-0.0343 z" id="path828" inkscape:connector-curvature="0" />
        <g id="g1062" style="fill:#602700;fill-opacity:1;stroke:none" transform="matrix(1.1445585,0,0,1.105964,-0.04179204,46.648376)">
            <path sodipodi:nodetypes="aaaaaaaaaaaaaaa" inkscape:connector-curvature="0" id="path1045" d="m 23.519718,181.13866 c -1.752428,2.10675 -4.930452,3.21883 -5.813112,5.81311 -1.555429,4.57166 -0.985078,10.47179 1.870887,14.36574 1.219916,1.66329 4.043438,1.26711 5.61266,2.60587 1.940888,1.65584 2.298865,4.73565 4.276313,6.34765 1.362482,1.11068 3.123194,1.89591 4.877667,2.00453 1.267299,0.0785 2.961222,0.0479 3.674957,-1.00226 1.02034,-1.50125 0.298954,-3.83605 -0.601356,-5.41221 -0.497113,-0.87029 -2.589461,-0.81885 -2.405427,-1.80407 0.407838,-2.18335 4.461068,-0.74692 6.414468,-1.80407 2.054588,-1.11191 4.272588,-2.50192 5.278575,-4.6104 1.535612,-3.21853 1.823949,-7.42092 0.400905,-10.69078 -1.291789,-2.96827 -4.335818,-5.16674 -7.349914,-6.34765 -4.813985,-1.8861 -10.885016,-2.86234 -15.501632,-0.53454 -0.386144,0.1947 -0.458439,0.73661 -0.734991,1.06908 z" style="fill:#602700;fill-opacity:1;stroke:none;stroke-width:0.26458332px;stroke-linecap:butt;stroke-linejoin:miter;stroke-opacity:1" />
        </g>
        <path style="fill:#b23667;fill-opacity:1;stroke:none;stroke-width:0.29768157px;stroke-linecap:butt;stroke-linejoin:miter;stroke-opacity:1" d="m 41.381007,213.1861 -0.378538,0.94073 c 0,0 -1.583235,9.55866 -2.108579,14.36979 -0.575431,5.26979 -1.141844,14.5211 -1.386991,18.78023 -0.470582,-0.009 -0.942652,-9e-4 -1.414197,0.0245 -0.189867,-3.04014 -0.638538,-9.9444 -1.038617,-13.89313 -0.339845,-3.35422 -0.574486,-6.73551 -1.29768,-10.03251 -0.749637,-3.41757 -3.136549,-10.03309 -3.136549,-10.03309 0,0 0.986518,3.10879 1.29768,4.70307 0.954735,4.89173 1.246941,9.88417 1.730632,14.84015 0.455663,4.66882 1.003691,12.41645 1.151584,14.52411 -0.0873,0.01 -0.174331,0.021 -0.261428,0.032 -0.697808,-2.68008 -2.280778,-8.38733 -3.836844,-11.39788 -1.077811,-2.08525 -2.637068,-3.91954 -4.205922,-5.69008 -1.113802,-1.25699 -3.670644,-3.47316 -3.670644,-3.47316 l -5.12447,-2.36438 3.747534,1.84718 c 0,0 4.995266,4.5692 6.730302,7.38978 1.553493,2.52544 2.330692,5.44366 3.135369,8.27679 0.43985,1.54865 0.880429,3.97838 1.179976,5.75867 -0.0657,0.0139 -0.132138,0.0268 -0.19755,0.0412 -2.405196,0.52944 -5.003229,1.4208 -6.597224,3.23997 -1.709324,1.95079 -2.144459,4.7695 -2.379472,7.31548 -0.177579,1.92379 0.01049,3.95615 0.757078,5.74781 0.587051,1.40895 1.508813,2.80827 2.811834,3.65775 2.13111,1.38933 7.463133,1.88087 7.463133,1.88087 0,0 -0.05088,1.54753 0.107649,2.29925 0.391767,1.85773 0.636675,4.02034 2.055348,5.33002 0.766653,0.70774 2.024796,1.27152 3.02831,0.94072 0.662505,-0.21839 1.189442,-1.67228 1.189442,-1.67228 0,0 -0.880017,0.33851 -1.297678,0.20919 -0.631177,-0.19545 -1.095339,-0.79331 -1.405919,-1.35909 -0.447269,-0.81479 -0.693498,-1.80652 -0.541192,-2.71703 0.164828,-0.98535 1.514155,-2.61241 1.514155,-2.61241 l 1.190033,-0.31377 c 0,0 5.955975,-1.4652 7.894899,-3.55316 1.271543,-1.36927 1.483677,-3.41803 1.838874,-5.22543 0.282808,-1.43904 0.57828,-2.96688 0.216475,-4.38929 -0.408785,-1.60715 -1.477422,-3.0314 -2.595947,-4.28472 -1.540647,-1.72628 -3.299692,-3.50375 -5.516022,-4.2847 -0.24683,-0.0869 -0.49741,-0.16269 -0.74998,-0.23375 0.06805,-1.58304 0.212963,-3.64116 0.534094,-4.93967 1.005203,-4.06457 2.776341,-7.97122 4.921005,-11.6002 1.716281,-2.90411 6.272506,-7.99446 6.272506,-7.99446 0,0 -4.515556,3.91034 -6.272506,6.27017 -2.170529,2.91532 -3.674523,6.26126 -5.137481,9.56272 -0.525045,1.18488 -0.983129,2.40518 -1.297679,3.65776 -0.308547,1.22866 -0.593504,3.10461 -0.800846,4.67104 -0.0962,-0.0137 -0.19261,-0.0265 -0.289228,-0.0383 0.03963,-2.42038 0.103465,-5.63549 0.224759,-7.97732 0.380428,-7.34487 1.254492,-14.65882 1.730634,-21.99848 0.09146,-1.40979 0.215884,-4.2327 0.215884,-4.2327 z" id="path826" inkscape:connector-curvature="0" />
        <path style="fill:#000000;fill-opacity:0.15686275;stroke:none;stroke-width:0.29768157px;stroke-linecap:butt;stroke-linejoin:miter;stroke-opacity:1" d="m 49.071852,264.60085 a 31.148341,29.993513 0 0 1 -12.990388,2.77189 31.148341,29.993513 0 0 1 -11.46618,-2.13407 c 0.564387,1.00468 1.314697,1.92768 2.273007,2.55243 2.13111,1.38933 7.463133,1.88088 7.463133,1.88088 0,0 -0.05088,1.54752 0.107649,2.29924 0.391767,1.85773 0.636678,4.02033 2.055348,5.33002 0.766656,0.70774 2.024796,1.27152 3.02831,0.94072 0.662505,-0.21838 1.189442,-1.67228 1.189442,-1.67228 0,-1e-5 -0.880017,0.33851 -1.297678,0.20919 -0.631177,-0.19545 -1.095339,-0.79331 -1.405919,-1.35909 -0.447269,-0.81479 -0.693495,-1.80652 -0.541192,-2.71702 0.164828,-0.98536 1.514155,-2.61242 1.514155,-2.61242 l 1.190033,-0.31377 c 0,0 5.955975,-1.4652 7.894899,-3.55316 0.438589,-0.4723 0.749535,-1.02636 0.985386,-1.62256 z" id="path826-3" inkscape:connector-curvature="0" />
    </g>
</svg>