<?xml version="1.0" encoding="UTF-8" standalone="no"?>
<svg xmlns:dc="http://purl.org/dc/elements/1.1/" xmlns:cc="http://creativecommons.org/ns#" xmlns:rdf="http://www.w3.org/1999/02/22-rdf-syntax-ns#" xmlns:svg="http://www.w3.org/2000/svg" xmlns="http://www.w3.org/2000/svg" xmlns:sodipodi="http://sodipodi.sourceforge.net/DTD/sodipodi-0.dtd" xmlns:inkscape="http://www.inkscape.org/namespaces/inkscape" width="45mm" height="90mm" viewBox="0 0 45 90" version="1.1" id="svg8" sodipodi:docname="sailoruchiha2.svg" inkscape:version="1.0.2-2 (e86c870879, 2021-01-15)">
    <defs id="defs2" />
    <sodipodi:namedview id="base" pagecolor="#ffffff" bordercolor="#666666" borderopacity="1.0" inkscape:pageopacity="0.0" inkscape:pageshadow="2" inkscape:zoom="0.98994949" inkscape:cx="476.35201" inkscape:cy="296.41571" inkscape:document-units="mm" inkscape:current-layer="layer1" showgrid="false" showguides="false" inkscape:window-width="1837" inkscape:window-height="958" inkscape:window-x="1229" inkscape:window-y="1234" inkscape:window-maximized="0" inkscape:document-rotation="0" />
    <metadata id="metadata5">
        <rdf:RDF>
            <cc:Work rdf:about="">
                <dc:format>image/svg+xml</dc:format>
                <dc:type rdf:resource="http://purl.org/dc/dcmitype/StillImage" />
                <dc:title></dc:title>
            </cc:Work>
        </rdf:RDF>
    </metadata>
    <g inkscape:label="Layer 1" inkscape:groupmode="layer" id="layer1" transform="translate(-130,-207)">
        <g id="g1062" style="fill:#602700;fill-opacity:1;stroke:none" transform="matrix(1.1445585,0,0,1.105964,-0.04179204,46.648376)">
            <path sodipodi:nodetypes="aaaaaaaaaaaaaa" inkscape:connector-curvature="0" id="path1051" d="m 117.66541,189.42401 c 0.57898,3.53482 -0.23695,7.76323 2.00452,10.55715 1.411,1.75876 4.88855,0.84862 6.21402,2.6727 1.56468,2.15326 -0.26225,5.48342 0.73499,7.95126 1.1338,2.80576 2.86311,5.97542 5.67947,7.08265 2.28358,0.89777 5.25065,0.30564 7.2831,-1.06908 2.86043,-1.93475 5.60883,-5.52313 5.21175,-8.95353 -0.26087,-2.25368 -4.87691,-2.68457 -4.67721,-4.94449 0.17802,-2.01453 3.74956,-1.92962 4.87767,-3.60814 2.6155,-3.89161 4.96912,-9.18647 3.4745,-13.63074 -0.93469,-2.77932 -4.12714,-4.47506 -6.88219,-5.47903 -4.73101,-1.72403 -10.24762,-1.74332 -15.10073,-0.4009 -3.56115,0.98505 -7.80162,2.59399 -9.35443,5.94674 -0.54803,1.18329 0.32376,2.58852 0.53454,3.87541 z" style="fill:#602700;fill-opacity:1;stroke:none;stroke-width:0.26458332px;stroke-linecap:butt;stroke-linejoin:miter;stroke-opacity:1" />
        </g>
        <path style="fill:none;stroke:#000000;stroke-width:0.29768157px;stroke-linecap:butt;stroke-linejoin:miter;stroke-opacity:1" d="M 182.50737,269.96336 Z" id="path964" inkscape:connector-curvature="0" />
        <path style="fill:#1ea734;fill-opacity:1;stroke:none;stroke-width:0.29768157px;stroke-linecap:butt;stroke-linejoin:miter;stroke-opacity:1" d="m 147.55764,247.129 c 0.09,-1.63013 -0.0196,-3.30093 -0.45885,-4.87723 -0.6286,-2.25599 -1.82015,-4.34888 -3.05905,-6.35521 -0.89606,-1.45112 -1.80095,-2.9724 -3.13554,-4.06437 -0.76567,-0.62649 -1.74417,-0.97243 -2.67668,-1.33015 -1.28227,-0.49191 -3.97676,-1.10846 -3.97676,-1.10846 0,0 0.76443,-0.32097 1.14715,-0.48034 0.44571,-0.18561 0.91657,-0.32216 1.33833,-0.55423 0.50734,-0.27916 0.84861,-0.86013 1.41482,-0.99763 1.34788,-0.32729 2.79292,0.18693 4.12973,0.55423 0.57635,0.15837 1.06123,0.56834 1.64423,0.70205 0.74503,0.17084 1.63288,-0.26198 2.29429,0.11084 0.78192,0.44076 1.01142,1.45337 1.45305,2.21692 0.31148,0.53852 0.42224,1.19722 0.84125,1.6627 0.40369,0.44847 1.14953,0.53022 1.52953,0.99762 0.22671,0.27885 0.33717,0.6457 0.38238,0.99762 0.0585,0.45486 -0.0175,0.92782 -0.15296,1.36711 -0.20834,0.67569 -0.60817,1.28609 -0.99419,1.88438 -0.40459,0.6271 -1.43078,1.03643 -1.37657,1.77355 0.0358,0.48646 0.87753,0.58399 1.07067,1.03456 0.34145,0.79651 0.003,1.72428 0,2.58641 -0.006,1.57652 -0.0383,4.72945 -0.0383,4.72945 l -1.56777,0.0738 c 0,0 0.17384,-0.61014 0.19117,-0.92369 z" id="path977" inkscape:connector-curvature="0" sodipodi:nodetypes="aaaaacaaaaaaaaaaaaaaacca" />
        <path style="fill:#009544;fill-opacity:1;stroke:none;stroke-width:0.29768157px;stroke-linecap:butt;stroke-linejoin:miter;stroke-opacity:1" d="m 141.42358,224.31607 c -0.48998,-0.92151 -2.00254,-0.79675 -2.86608,-1.41084 -0.83158,-0.59138 -1.6183,-1.29488 -2.16308,-2.14241 -0.7159,-1.11373 -1.81545,-2.47778 -1.35192,-3.70999 0.38652,-1.02753 1.86978,-1.26569 2.92015,-1.6721 1.11629,-0.43193 2.31584,-0.86974 3.51501,-0.78382 1.17837,0.0845 2.15855,0.95425 3.2987,1.25408 1.00368,0.26396 2.18658,-0.0405 3.08238,0.47028 0.531,0.30283 0.80688,0.90682 1.13562,1.41086 0.38683,0.59309 0.58237,1.29059 0.97338,1.88112 0.12442,0.18789 0.23458,0.40794 0.43262,0.52254 0.42464,0.24573 1.0618,-0.0227 1.46008,0.26127 0.34385,0.24515 0.48562,0.69813 0.59485,1.09732 0.1337,0.48862 0.1514,1.01877 0.054,1.51535 -0.10965,0.55953 -0.40333,1.07722 -0.703,1.5676 -0.25482,0.417 -0.85609,0.66919 -0.91931,1.14959 -0.0347,0.26316 0.138,0.53679 0.32447,0.73153 0.29021,0.30308 0.87832,0.2451 1.13561,0.57478 0.32142,0.41183 0.30685,0.99983 0.32447,1.51536 0.0216,0.63271 -0.15156,1.25857 -0.2704,1.88113 -0.13087,0.68559 -0.39349,1.34657 -0.48669,2.03788 -0.21663,1.60713 -0.0408,3.24314 -0.16224,4.85958 -0.20889,2.77981 -0.55543,5.55059 -0.97337,8.3083 -0.13269,0.87555 -0.4867,2.61268 -0.4867,2.61268 l -1.35796,-0.26934 c 0,0 0.63932,-2.97465 0.70904,-4.48572 0.0868,-1.88123 -0.16804,-3.76479 -0.36491,-5.63825 -0.18464,-1.75713 0.15042,-3.71789 -0.76477,-5.24673 -1.31875,-2.20296 -4.50084,-2.77521 -6.23282,-4.69251 -0.49198,-0.54462 -0.98778,-1.165 -1.12759,-1.87519 -0.11239,-0.5711 0.54537,-1.20725 0.27043,-1.72435 z" id="path979" inkscape:connector-curvature="0" sodipodi:nodetypes="aaaaaaaaaaaaaaaaaaaaaaaccaaaaaa" />
        <path style="fill:#009544;fill-opacity:1;stroke:none;stroke-width:0.29768157px;stroke-linecap:butt;stroke-linejoin:miter;stroke-opacity:1" d="m 150.29216,248.24816 c 0,0 1.01257,-4.31953 2.32536,-6.06141 0.63475,-0.84219 1.64103,-1.36047 2.54162,-1.93337 1.98743,-1.2643 3.96671,-2.72588 6.27293,-3.29197 0.54158,-0.13294 1.19076,0.26711 1.67638,0 0.58301,-0.32068 0.76901,-1.07395 1.02747,-1.67212 0.16507,-0.38206 0.0405,-0.89178 0.32447,-1.20183 1.97868,-2.16061 6.83715,-0.68766 8.32784,-3.18746 0.60965,-1.02235 -6e-5,-2.44305 -0.54076,-3.50099 -0.69993,-1.36951 -1.87051,-2.63735 -3.2987,-3.29196 -1.16045,-0.53189 -2.55882,-0.40809 -3.83947,-0.31352 -0.53619,0.0396 -1.03311,0.41709 -1.56824,0.36578 -0.55374,-0.0531 -0.96774,-0.57756 -1.51414,-0.6793 -0.65588,-0.12209 -1.38052,-0.13475 -2.00085,0.10454 -0.59379,0.22902 -1.02388,0.75018 -1.46008,1.20183 -0.35175,0.36421 -0.48172,0.93844 -0.91932,1.20181 -0.51317,0.30889 -1.2078,0.13821 -1.78453,0.31353 -0.45395,0.13801 -0.98448,0.22871 -1.29785,0.57479 -0.4468,0.49344 -0.57737,1.22568 -0.59485,1.88112 -0.0211,0.78971 0.34707,1.54634 0.59485,2.29916 0.10551,0.32057 0.44206,0.60981 0.37854,0.94056 -0.0489,0.2546 -0.29341,0.47521 -0.54077,0.5748 -0.76615,0.30844 -1.8497,-0.61763 -2.48759,-0.10454 -3.90271,3.13935 -2.10896,14.57873 -2.10896,14.57873 z" id="path981" inkscape:connector-curvature="0" sodipodi:nodetypes="caaaaaaaaaaaaaaaaaaaaaacc" />
        <path style="fill:#1ea734;fill-opacity:1;stroke:none;stroke-width:0.29768157px;stroke-linecap:butt;stroke-linejoin:miter;stroke-opacity:1" d="m 154.51701,247.94187 c 0,0 0.56486,-2.41657 1.07066,-3.54708 0.85706,-1.9156 2.00931,-3.71299 3.28849,-5.39452 1.28275,-1.68621 2.63895,-3.38406 4.35915,-4.65556 1.2949,-0.95712 2.75593,-1.85714 4.35916,-2.14303 1.66383,-0.29668 5.04745,0.51728 5.04745,0.51728 0,0 -1.14268,-1.92116 -2.06487,-2.51252 -0.94824,-0.60805 -2.15048,-0.87745 -3.28849,-0.88676 -0.60591,-0.004 -1.1663,0.56532 -1.75895,0.44338 -0.63861,-0.13138 -0.87723,-1.155 -1.52954,-1.18236 -0.45912,-0.0192 -0.85091,0.39948 -1.14714,0.73898 -0.32368,0.37094 -0.20654,1.04366 -0.61181,1.33016 -0.55892,0.39511 -1.43622,-0.059 -2.06486,0.22169 -0.54022,0.24123 -1.08695,0.64545 -1.3001,1.18236 -0.3298,0.83082 0.14754,1.77399 0.22943,2.66032 0.0479,0.51756 0.38139,1.08142 0.15296,1.55184 -0.28833,0.59378 -1.29055,0.57297 -1.68249,1.10847 -0.51771,0.70733 -0.36169,1.70568 -0.68828,2.51252 -1.07169,2.64759 -4.12973,7.53755 -4.12973,7.53755 z" id="path975" inkscape:connector-curvature="0" sodipodi:nodetypes="caaaacaaaaaaaaaaaacc" />
        <path style="fill:#d42767;fill-opacity:1;stroke:none;stroke-width:0.29768157px;stroke-linecap:butt;stroke-linejoin:miter;stroke-opacity:1" d="m 139.22172,257.77025 c -0.37253,-0.97273 -0.45559,-2.08978 -0.22943,-3.1037 0.37253,-1.67001 1.19776,-3.37773 2.52372,-4.50774 2.22329,-1.89473 5.35569,-2.70176 8.2895,-3.11247 1.40773,-0.19708 2.84081,0.17387 4.25264,0.3413 1.65348,0.19609 3.40918,0.12487 4.93273,0.77593 1.08685,0.46444 2.00194,1.28469 2.79139,2.14303 1.09497,1.19055 2.08417,2.55168 2.6002,4.06438 0.28829,0.8451 0.24668,1.77063 0.22942,2.6603 -0.0159,0.81869 -0.13679,1.63628 -0.30591,2.43862 -0.23831,1.13058 -0.0637,2.60241 -0.99419,3.32541 -3.06591,2.38201 -7.85174,0.9877 -11.77736,0.73897 -3.13791,-0.19884 -6.59692,-0.14786 -9.25364,-1.77355 -1.44731,-0.88563 -2.46452,-2.43802 -3.05907,-3.99048 z" id="path983" inkscape:connector-curvature="0" sodipodi:nodetypes="aaaaaaaaaaaaaa" />
        <path style="fill:#000000;fill-opacity:0.15686275;stroke:none;stroke-width:0.29768157px;stroke-linecap:butt;stroke-linejoin:miter;stroke-opacity:1" d="m 150.86509,246.99281 c -0.35437,-0.01 -0.70739,0.004 -1.05932,0.0537 -2.9338,0.41071 -6.06671,1.21779 -8.29,3.11251 -1.32595,1.13001 -2.15068,2.83758 -2.52319,4.5076 -0.22618,1.01392 -0.14364,2.13063 0.22889,3.10337 0.59455,1.55246 1.61177,3.1053 3.05908,3.99094 2.65671,1.6257 6.11618,1.5746 9.25408,1.77344 3.92563,0.24874 8.71138,1.64305 11.77729,-0.73897 0.93055,-0.723 0.75595,-2.19512 0.99426,-3.32569 0.16911,-0.80236 0.28988,-1.62002 0.30579,-2.4387 0.0173,-0.88968 0.0588,-1.81475 -0.22949,-2.65987 -0.51603,-1.51269 -1.50511,-2.87412 -2.60009,-4.06467 -0.78944,-0.85833 -1.70487,-1.67875 -2.79173,-2.14321 -1.52356,-0.65105 -3.27877,-0.57947 -4.93224,-0.77554 -1.05888,-0.12559 -2.13021,-0.3659 -3.19333,-0.39494 z m -4.88079,4.54647 c 0.92185,0.0156 1.83772,0.17429 2.63144,0.57551 1.04126,0.52636 2.51846,1.44031 2.32566,2.56043 -0.20801,1.20835 -2.05191,1.61 -3.29922,1.82888 -1.65322,0.2901 -3.66729,0.23614 -4.97482,-0.78357 -0.84396,-0.65817 -1.61328,-1.96156 -1.18943,-2.92619 0.40424,-0.92002 1.84137,-1.01042 2.86564,-1.1499 0.53221,-0.0724 1.08763,-0.1145 1.64073,-0.10519 z" id="path983-5" inkscape:connector-curvature="0" />
        <path style="fill:#fee1d1;fill-opacity:1;stroke:none;stroke-width:0.29768157px;stroke-linecap:butt;stroke-linejoin:miter;stroke-opacity:1" d="m 144.66821,266.06662 c -1.24403,-0.64823 -2.46554,-1.44507 -3.35278,-2.50817 -1.10336,-1.32207 -1.8281,-2.95477 -2.27122,-4.5983 -0.28236,-1.04719 -0.4134,-2.17446 -0.21632,-3.23972 0.0625,-0.33774 0.0817,-0.88787 0.43262,-0.94058 0.21449,-0.0322 0.33929,0.28093 0.43262,0.4703 0.43189,0.87643 -0.12191,2.10162 0.4867,2.87393 0.75735,0.96109 2.16226,1.62925 3.40684,1.51537 1.08059,-0.0989 1.5872,-1.61475 2.64976,-1.82889 1.19055,-0.23992 2.55692,0.0801 3.56908,0.73156 1.00291,0.6455 1.07699,2.19362 2.05493,2.87395 0.57872,0.40259 1.35541,0.7086 2.05493,0.57478 1.33383,-0.25517 1.843,-2.28054 3.19055,-2.45592 1.36052,-0.17708 2.41406,1.62891 3.78538,1.56762 0.71711,-0.0321 1.4785,-0.42628 1.89269,-0.99283 0.40012,-0.5473 -0.0695,-1.43416 0.32446,-1.98564 0.33021,-0.46228 0.98854,-1.07596 1.51417,-0.83604 0.67791,0.30941 0.37853,2.14239 0.37853,2.14239 0,0 -0.62688,2.9145 -1.51415,4.07577 -0.96359,1.26113 -2.43052,2.14429 -3.89355,2.82169 -1.51003,0.69918 -4.86693,1.20184 -4.86693,1.20184 0,0 0.19864,1.37288 0.054,2.03788 -0.13929,0.64052 -0.58087,1.18258 -0.86522,1.77661 -0.27431,0.57305 -0.72973,1.09791 -0.81116,1.72438 -0.0639,0.49155 -0.0429,1.07097 0.27039,1.46309 0.31547,0.39477 1.40599,0.62704 1.40599,0.62704 l -0.2163,0.41804 c 0,0 -0.83917,0.0873 -1.24378,0 -0.33051,-0.0713 -0.91931,-0.41804 -0.91931,-0.41804 0,0 -0.37242,0.41986 -0.4326,0.6793 -0.1428,0.61562 -0.20995,1.40323 0.21631,1.88113 0.4139,0.46404 1.83861,0.47028 1.83861,0.47028 0,0 -0.73096,0.40023 -1.13563,0.41802 -0.46748,0.0205 -0.97528,-0.0974 -1.35191,-0.36576 -0.53521,-0.38139 -0.91077,-0.99885 -1.08154,-1.61987 -0.25961,-0.94404 -0.0424,-1.9696 0.16222,-2.92619 0.17889,-0.83652 0.84245,-1.55272 0.91932,-2.40367 0.0525,-0.58201 -0.1296,-1.17133 -0.32446,-1.72436 -0.20268,-0.57521 -0.86523,-1.61987 -0.86523,-1.61987 0,0 -3.91693,-0.96347 -5.67803,-1.88112 z" id="path1003" inkscape:connector-curvature="0" sodipodi:nodetypes="aaaaaaaaaaaaaaaaacaacaaasccscsscsssaaaca" />
        <path style="fill:#000000;fill-opacity:0.15686275;stroke:none;stroke-width:0.29768157px;stroke-linecap:butt;stroke-linejoin:miter;stroke-opacity:1" d="m 152.45224,265.16014 c -3.01447,0.004 -4.5793,-1.87501 -6.11057,0.78028 1.91954,0.8232 4.00471,2.00728 4.00471,2.00728 0,0 0.66263,1.04449 0.8653,1.61969 0.19487,0.55305 0.37667,1.14285 0.32413,1.72486 -0.0769,0.85095 -0.74026,1.56672 -0.91913,2.40325 -0.20459,0.95659 -0.42167,1.98216 -0.16206,2.9262 0.17078,0.62102 0.54598,1.23889 1.08119,1.62026 0.37663,0.26835 0.88462,0.38635 1.35211,0.36577 0.40465,-0.0178 1.1356,-0.41835 1.1356,-0.41835 0,0 -1.42497,-0.006 -1.83887,-0.47036 -0.42626,-0.47789 -0.35868,-1.26526 -0.21589,-1.88087 0.0602,-0.25945 0.43237,-0.67956 0.43237,-0.67956 0,0 0.58862,0.34702 0.91913,0.41836 0.40461,0.0873 1.24387,0 1.24387,0 l 0.21647,-0.41836 c 0,0 -1.09044,-0.23218 -1.40592,-0.62695 -0.31331,-0.39212 -0.33416,-0.97154 -0.2703,-1.46311 0.0815,-0.62644 0.5366,-1.15123 0.81092,-1.72427 0.28434,-0.59404 0.726,-1.13635 0.8653,-1.77687 0.14461,-0.665 -0.0538,-2.03748 -0.0538,-2.03748 0,0 1.13873,-0.46578 2.64878,-1.16496 0.69013,-0.38247 0.81288,-1.09043 0.9198,-1.45595 -1.55112,-2.57357 -2.88684,0.25387 -5.84312,0.25114 z" id="path1003-3" inkscape:connector-curvature="0" sodipodi:nodetypes="ccccccccccccccccccsccccc" />
    </g>
</svg>