<?xml version="1.0" encoding="UTF-8" standalone="no"?>
    <svg
    xmlns:dc="http://purl.org/dc/elements/1.1/"
    xmlns:cc="http://creativecommons.org/ns#"
    xmlns:rdf="http://www.w3.org/1999/02/22-rdf-syntax-ns#"
    xmlns:svg="http://www.w3.org/2000/svg"
    xmlns="http://www.w3.org/2000/svg"
    xmlns:sodipodi="http://sodipodi.sourceforge.net/DTD/sodipodi-0.dtd"
    xmlns:inkscape="http://www.inkscape.org/namespaces/inkscape"
    width="50mm"
    height="90mm"
    viewBox="0 0 50 90"
    version="1.1"
    id="svg8"
    sodipodi:docname="sailoruchiha2.svg"
    inkscape:version="1.0.2-2 (e86c870879, 2021-01-15)">
    <defs id="defs2" />
    <sodipodi:namedview id="base" pagecolor="#ffffff" bordercolor="#666666" borderopacity="1.0" inkscape:pageopacity="0.0" inkscape:pageshadow="2" inkscape:zoom="0.98994949" inkscape:cx="200" inkscape:cy="200" inkscape:document-units="mm" inkscape:current-layer="layer1" showgrid="false" showguides="false" inkscape:window-width="200" inkscape:window-height="200" inkscape:window-x="200" inkscape:window-y="200" inkscape:window-maximized="0" inkscape:document-rotation="0" />
    <metadata id="metadata5">
        <rdf:RDF>
            <cc:Work rdf:about="">
                <dc:format>image/svg+xml</dc:format>
                <dc:type rdf:resource="http://purl.org/dc/dcmitype/StillImage" />
                <dc:title></dc:title>
            </cc:Work>
        </rdf:RDF>
    </metadata>
    <g inkscape:label="Layer 1" inkscape:groupmode="layer" id="layer1" transform="translate(-90, -207)">
        <g id="g1062" style="fill:#602700;fill-opacity:1;stroke:none" transform="matrix(1.1445585,0,0,1.105964,-0.04179204,46.648376)">
            <path sodipodi:nodetypes="aaaaaaaaa" inkscape:connector-curvature="0" id="path1049" d="m 89.602108,186.55087 c -1.085968,4.17825 1.440252,8.51332 2.204974,12.76212 0.879038,4.88393 -0.256636,10.67717 2.739511,14.633 1.4253,1.88183 4.018269,3.52347 6.347657,3.14042 3.0459,-0.50088 5.18933,-3.77644 6.5481,-6.5481 3.27115,-6.67261 3.59019,-14.72672 2.80633,-22.11656 -0.23711,-2.23534 -0.52111,-4.90674 -2.23346,-6.36304 -3.33299,-2.83461 -8.823765,-3.83301 -12.922623,-2.30226 -2.727826,1.01873 -4.758008,3.97621 -5.490489,6.79442 z" style="fill:#602700;fill-opacity:1;stroke:none;stroke-width:0.26458332px;stroke-linecap:butt;stroke-linejoin:miter;stroke-opacity:1" />
        </g>
        <path style="fill:#3abd00;fill-opacity:1;stroke:none;stroke-width:0.29768157px;stroke-linecap:butt;stroke-linejoin:miter;stroke-opacity:1" d="m 130.88593,211.1412 -0.76478,0.51722 -0.45896,1.10819 -0.42054,0.29547 -0.0763,-0.81271 0.91737,-0.9973 -0.87951,0.40635 -0.34364,0.59095 -0.19164,0.92358 -0.34423,0.18518 -0.19105,-1.14591 0.15321,-0.77554 -0.68848,1.03445 -0.34424,0.22175 0.11475,1.21905 -0.0378,1.29337 -0.72691,0.73897 -0.26734,-0.59096 0.19105,-1.55225 v -0.81271 l -0.38268,-0.70183 -0.95582,0.14746 -0.84106,1.18248 -0.19104,0.14803 0.0763,-1.25621 -0.80321,-0.0372 -0.80262,-0.29547 -0.53529,0.77556 -0.30637,0.84985 -0.38209,-0.9973 -0.87952,0.3692 -0.49742,1.0716 0.0385,1.29336 -0.68846,-0.55438 -0.57314,0.44351 0.45839,1.36708 -1.52954,-0.70183 0.2295,0.66468 0.84165,0.92414 0.0378,1.40367 -0.38209,-0.0737 -0.65003,-1.25621 h -0.45897 l -1.109,-0.55438 0.42054,0.84986 0.49742,0.77612 -0.34424,0.14745 0.19105,0.36979 0.8032,0.22174 0.72634,0.51723 -0.22951,0.88643 -0.53527,0.0743 -0.0385,-1.03446 -0.76477,-0.0372 -0.38208,-0.73899 0.0763,-0.66524 -0.95582,-1.29336 -1.2616,-1.95803 -0.30639,0.29548 1.07115,2.18035 0.4584,2.5124 0.9564,2.32783 1.56738,1.99518 -0.0378,0.4435 -0.57373,1.2928 -0.61217,1.77342 -1.1853,0.0743 1.07055,-1.14532 0.26794,-0.88701 -0.42053,-0.48009 -1.10901,-0.14802 -0.57372,-0.73898 v -1.99519 l -0.61157,-1.3305 -0.72633,-0.55381 -0.30638,0.48009 -0.68788,0.2589 0.3058,-0.70241 1.33849,-1.4408 0.26734,-1.55168 -0.38209,-1.03447 -0.91795,0.62811 v 1.03445 l -0.49684,-0.48065 -0.53528,-0.3692 0.30579,1.29335 0.15261,1.1082 -0.26735,-0.14804 -0.65002,-1.40366 -0.49743,-0.33262 -0.0763,0.62811 -0.26793,0.1846 -0.49683,-0.6647 -0.11475,0.40636 0.0385,2.8079 -0.65001,0.22175 -0.72692,0.88701 -0.19105,0.59094 -0.42053,-0.73897 0.84108,-1.40423 -0.65003,-0.51724 -0.19105,0.59154 -0.26793,-1.10875 -0.49683,-0.29549 -0.11474,0.70183 -0.45898,-0.33263 -0.19104,-0.99731 -0.87952,-0.84985 -0.0763,0.4435 -0.9564,-0.77612 -0.84106,0.18459 -0.0384,0.73898 0.0769,0.6281 -0.65002,-0.84984 -0.76477,-0.14746 H 102.016 l 0.15319,0.48009 0.45897,0.55437 -0.45897,0.29548 0.61157,0.55437 0.0769,0.77614 0.99425,0.0366 0.49683,0.7024 v 0.92359 l 1.2616,-0.96073 1.30064,1.10818 0.42053,0.73897 -1.109,-0.70181 0.80262,1.03444 0.0769,0.6281 -1.26219,-0.92357 -2.60008,-1.51511 -1.03211,-1.32994 -0.61217,-2.06891 -0.84107,-0.88701 -2.753276,-0.0372 -1.223748,0.59153 -1.873175,1.99519 v 2.66044 l 0.95581,0.84985 0.726322,-0.0743 -0.229489,0.88701 0.573723,0.29548 1.605832,-0.59097 0.726915,0.18461 -1.223745,1.32993 -0.573723,0.48066 -0.114747,0.66524 0.03844,0.25834 1.300043,-0.51723 1.911628,-1.32994 1.83591,-0.70241 2.40845,-0.55437 0.53587,0.33263 -0.0769,0.40635 -1.79688,0.22175 c 0,0 -0.99428,0.18484 -1.109,0.33263 -0.11471,0.1478 -0.22949,0.81328 -0.22949,0.81328 l -0.11474,0.92358 -1.33849,-0.29548 -0.19105,-0.6281 -0.34423,0.25833 h -0.764769 l -0.764766,0.62811 v 0.51722 l -0.229489,0.48065 -1.185298,0.14744 -0.1526,0.55438 0.458385,0.14803 -0.420531,0.59096 0.80321,-0.51723 2.944328,-1.18248 2.79113,-0.73897 1.30005,-0.18461 0.80321,1.21905 0.91795,1.03504 -0.45897,0.11026 -0.0763,1.3305 0.26734,0.33262 0.57372,-0.96072 0.99426,1.14533 -0.11475,0.92359 -2.10325,-1.44082 -1.2616,-1.84773 -1.56798,-0.62811 -0.42053,0.55437 -1.37694,-0.40634 -1.376345,0.70182 -2.06481,1.21963 0.03844,0.70184 c 0,0 1.644134,0.36939 1.835324,0.40634 0.191193,0.037 2.600091,0.0737 2.600091,0.0737 l 1.45324,0.29606 0.76476,0.33205 1.64428,-0.29548 1.03211,0.2589 0.61217,0.73898 -2.25645,0.14745 -1.83532,0.0372 -1.0327,0.92358 4.09177,0.14803 1.83532,0.14803 0.72691,0.51722 0.45839,0.59096 1.95005,2.77132 0.53588,1.55167 0.76477,2.99307 0.42054,2.62329 0.68787,0.14745 -0.1526,-1.47795 -1.14744,-5.13571 0.65001,-2.54956 0.15319,-1.14534 0.80322,2.21694 0.80262,2.03234 -0.38209,5.98556 0.65002,0.14802 0.57312,-5.83811 c 0,0 1.72118,-2.69729 1.72118,-3.06679 0,-0.36949 1.79688,-2.58613 1.79688,-2.58613 l 1.87377,-0.84985 2.06481,-0.25891 1.52954,0.48007 0.26793,-0.22116 -0.91797,-0.44351 2.52379,-0.18461 -0.38267,-0.66525 -1.22315,-0.29548 -0.76478,0.55381 -0.76476,-0.0366 0.91737,-0.51723 0.34424,-0.55438 -1.22375,-0.0372 -0.95581,0.62811 -1.79688,0.92415 -0.49743,-0.0743 2.10325,-1.77344 1.18531,-0.25832 1.75903,0.22118 1.14684,0.40692 0.45898,-0.36978 -0.99425,-0.55437 1.22375,0.11087 0.65002,-0.29547 -0.57373,-0.29548 0.65003,-0.29548 0.57371,-0.29604 1.14746,0.73898 0.30578,-0.22118 -0.61217,-0.59153 1.18589,0.66525 1.45266,-0.29548 0.9558,-0.33261 -1.5674,-0.77614 0.95583,-0.0737 1.14745,0.29547 1.14684,-0.51722 -1.56798,-1.21906 -0.9558,0.55381 -0.38209,-0.14745 0.61158,-0.40636 -0.91796,-1.21963 -0.0763,-0.55437 2.218,1.03503 1.41479,0.11087 -1.07054,-0.99788 0.57311,-0.48007 -1.37633,0.14744 -0.61158,-0.29547 -0.45897,-0.77613 0.53527,-0.40635 0.0385,-0.55438 -1.22375,-0.40635 -0.61217,0.36977 -0.49683,-0.0372 -0.53527,0.48065 -0.0763,-1.10876 -0.76478,1.21964 -0.53527,0.44292 -0.72691,-0.22174 -0.26734,-0.99731 0.65001,-0.84986 -0.0385,-0.29547 -0.42055,-0.0372 -0.34422,0.55437 -0.34424,0.0737 -0.80262,-0.3692 -0.19164,0.11087 -0.11474,-0.36978 h -0.30588 l -0.0763,-0.48008 -0.42054,0.11088 -0.53527,0.44293 -0.30639,-0.25833 0.57372,-0.55438 -0.84106,0.14803 -1.07056,0.44293 -0.8032,0.40693 -0.0763,-0.66526 1.37634,-0.66525 1.87377,-0.0367 2.63854,0.36921 2.52379,0.73899 2.06481,1.14531 1.68212,0.92417 0.2295,-0.48066 -0.68788,-0.73897 -0.95641,-0.92358 -0.80262,-0.40636 -0.26793,-0.70241 0.57372,-0.40635 0.76478,0.22176 1.26159,0.51722 0.61218,-0.1846 0.42053,-0.55438 -1.14746,-0.84984 0.19163,-0.3692 1.37635,-0.44351 0.49742,-1.95861 1.45266,-2.06891 -1.68214,-0.25833 -1.07115,0.25833 -0.19105,0.29548 -0.61157,-0.0367 0.45899,-1.03503 -0.84167,-0.81272 -0.76475,0.36978 -0.57314,0.25833 -0.68847,0.29548 -0.26794,0.48065 -1.0321,1.32994 -0.34425,0.14802 0.22951,-1.07161 0.8795,-1.21905 0.87952,-1.21964 -0.11476,-0.84985 z m -5.44919,4.82136 0.86059,0.62811 -1.83533,1.44138 -0.49742,-0.49894 0.30579,-1.12705 z m 1.33849,0.81328 0.87951,0.46178 -0.34423,0.49838 -1.56798,0.16631 0.36376,-0.31377 z m -4.68442,0.53552 0.68847,0.25832 1.03271,0.96073 -0.49743,1.07162 -1.03211,0.48064 -1.22375,0.96073 -0.38268,0.11087 -0.11474,-0.887 1.49168,-1.44081 -0.22948,-0.2589 -1.72059,1.55168 -0.22948,-0.51721 z m 9.49069,0.68182 h 0.43295 v 0.83614 l -0.75708,0.26118 -1.19003,-0.26118 z m -7.6246,5.87868 3.94744,0.62696 2.48771,1.22821 -0.2975,0.62695 -0.2703,-0.31376 -0.73047,-0.0783 -1.16223,0.34005 -1.27106,1.22762 -0.27031,-0.23489 0.81091,-1.35851 -0.0811,-0.81042 -0.78428,0.94074 -1.94652,0.86242 -0.13545,1.14934 -1.13562,0.91443 -0.0538,-0.39207 -0.48678,-1.61969 -0.59443,1.3848 0.43237,0.67897 -0.2431,1.43738 -1.8927,1.61969 0.62164,-1.28021 -0.2975,-0.0783 -1.29768,0.54865 1.21663,-1.09733 0.29751,-0.88814 0.67606,-0.52295 0.2703,-2.27294 -0.56781,0.0263 -0.40576,1.3848 -0.70264,0.36578 0.0267,-0.31376 -0.59442,-0.47037 -0.89252,1.64598 -0.62163,-0.46978 -0.2709,-0.83614 1.24387,-2.53471 1.10899,-0.91443 z m -14.63764,3.71147 0.7074,0.14745 1.43431,1.60713 0.72631,1.49681 -0.93687,-0.49893 -1.01318,-1.38537 z m 7.58025,4.93682 1.32489,2.24665 -2.02756,3.63145 0.2431,-4.38929 -0.0272,-1.41051 z m -4.0557,1.01845 0.51399,0.65325 -0.55302,1.93003 -0.52877,1.28364 c 0.0542,-0.15676 -0.13485,-3.55315 -0.13485,-3.55315 z m -2.27122,0.34006 1.05458,0.62695 0.0811,2.97821 -1.70342,-2.40383 z m 4.92101,0.15658 0.0272,4.10183 -0.24368,0.70526 -1.18944,-3.31769 0.10828,-1.35852 z" id="path872" inkscape:connector-curvature="0" />
        <path style="fill:#f39d00;fill-opacity:1;stroke:none;stroke-width:0.29768157px;stroke-linecap:butt;stroke-linejoin:miter;stroke-opacity:1" d="m 107.94288,255.47944 c 0.008,-1.83094 0.22222,-3.75739 1.07068,-5.39453 0.95749,-1.84754 2.32028,-3.85259 4.32118,-4.58148 0.64798,-0.23607 1.40329,0.0238 2.06481,0.22174 2.27674,0.68128 5.12232,1.25402 6.30908,3.25128 0.9908,1.66745 0.0415,3.85916 -0.22943,5.764 -0.32833,2.3084 -0.56089,4.73587 -1.68248,6.79858 -0.15951,0.29337 -0.56542,0.42958 -0.68829,0.73899 -0.32878,0.8279 0.1428,1.78434 0,2.66031 -0.27096,1.66211 -1.42717,3.12963 -1.606,4.80334 -0.0737,0.68999 0.33246,1.38266 0.22943,2.06914 -0.1427,0.95072 -0.81267,1.75564 -1.14715,2.66031 -0.26861,0.72654 -0.2671,1.5615 -0.68829,2.21693 -0.27592,0.42939 -0.63527,0.93063 -1.14714,1.03457 -0.52861,0.10735 -1.18024,-0.11914 -1.52952,-0.51728 -0.76965,-0.87731 -0.34838,-2.27771 -0.61182,-3.39929 -0.18755,-0.79852 -0.58522,-1.55198 -0.68829,-2.36473 -0.10237,-0.80721 0.19002,-1.63281 0.0764,-2.43861 -0.10443,-0.74113 -0.52934,-1.41103 -0.68829,-2.14305 -0.27922,-1.28586 0.004,-2.68126 -0.45885,-3.91657 -0.42624,-1.13695 -1.59854,-1.90763 -2.06487,-3.0298 -0.57944,-1.39436 -0.84759,-2.93128 -0.84124,-4.43385 z" id="path905" inkscape:connector-curvature="0" sodipodi:nodetypes="aaaaaaaaaaaaaaaaaaaaaa" />
        <path style="opacity:1;fill:#000000;fill-opacity:0.15686275;stroke:none;stroke-width:0.29768157px;stroke-linecap:butt;stroke-linejoin:miter;stroke-opacity:1" d="m 112.37851,263.01699 c 0,0 4.50504,-0.75804 6.04163,-2.21693 1.17505,-1.11564 1.43327,-2.89022 1.83544,-4.43386 0.33194,-1.27411 0.45886,-3.91657 0.45886,-3.91657 0,0 -0.58313,-1.65974 -0.15295,-2.58641 0.24732,-0.53281 0.9942,-1.18237 0.9942,-1.18237 l 0.68828,1.69965 c 0,0 -0.67861,4.09502 -1.07068,6.1335 -0.30419,1.5816 -0.20644,3.31225 -0.9942,4.72945 -0.22175,0.39895 -0.78593,0.55496 -0.99418,0.96067 -0.25152,0.48996 -0.30918,1.08427 -0.22943,1.62574 0.0353,0.24019 0.29844,0.4226 0.30589,0.66508 0.0258,0.84147 -0.63094,1.56979 -0.9177,2.36472 -0.27331,0.75765 -0.67968,1.4927 -0.76477,2.29083 -0.0736,0.69001 0.27563,1.37692 0.22943,2.06914 -0.0423,0.63198 -0.18855,1.2705 -0.45885,1.84743 -0.21878,0.46695 -0.70107,0.78841 -0.91772,1.25626 -0.41673,0.89994 -0.0796,2.09076 -0.68828,2.88202 -0.24522,0.31877 -0.66088,0.5604 -1.07068,0.59118 -0.57113,0.0429 -1.25224,-0.15579 -1.606,-0.59118 -0.63458,-0.78104 -0.38238,-2.95591 -0.38238,-2.95591 l -0.30591,-1.55184 1.22362,0.88676 c 0,0 1.09653,-0.0817 1.52953,-0.36948 0.51275,-0.34081 0.91196,-0.89649 1.07067,-1.47796 0.13715,-0.50244 0.18003,-1.14383 -0.15296,-1.55185 -0.58403,-0.71566 -2.67666,-0.88677 -2.67666,-0.88677 0,0 1.70288,0.24957 2.44723,-0.0738 0.57564,-0.25013 0.99228,-0.79774 1.30011,-1.33016 0.52779,-0.91285 0.96078,-1.99056 0.84124,-3.02981 -0.0609,-0.52982 -0.31096,-1.11941 -0.7694,-1.41595 -1.33903,-0.86615 -4.81338,-0.4315 -4.81338,-0.4315 z" id="path907" inkscape:connector-curvature="0" sodipodi:nodetypes="caacsccaaaaaaaaaaaaacccaaacaaaac" />
    </g>
</svg>
