<?xml version="1.0" encoding="UTF-8" standalone="no"?>
<!-- Created with Inkscape (http://www.inkscape.org/) -->

<svg
   xmlns:dc="http://purl.org/dc/elements/1.1/"
   xmlns:cc="http://creativecommons.org/ns#"
   xmlns:rdf="http://www.w3.org/1999/02/22-rdf-syntax-ns#"
   xmlns:svg="http://www.w3.org/2000/svg"
   xmlns="http://www.w3.org/2000/svg"
   xmlns:sodipodi="http://sodipodi.sourceforge.net/DTD/sodipodi-0.dtd"
   xmlns:inkscape="http://www.inkscape.org/namespaces/inkscape"
   width="210mm"
   height="110mm"
   viewBox="0 0 210 110"
   version="1.1"
   id="svg1431"
   inkscape:version="0.92.5 (2060ec1f9f, 2020-04-08)"
   sodipodi:docname="ceu.svg">
  <defs
     id="defs1425" />
  <sodipodi:namedview
     id="base"
     pagecolor="#ffffff"
     bordercolor="#666666"
     borderopacity="1.0"
     inkscape:pageopacity="0.0"
     inkscape:pageshadow="2"
     inkscape:zoom="0.7"
     inkscape:cx="278.94084"
     inkscape:cy="254.21903"
     inkscape:document-units="mm"
     inkscape:current-layer="layer1"
     showgrid="false"
     inkscape:window-width="1802"
     inkscape:window-height="772"
     inkscape:window-x="703"
     inkscape:window-y="1150"
     inkscape:window-maximized="0" />
  <metadata
     id="metadata1428">
    <rdf:RDF>
      <cc:Work
         rdf:about="">
        <dc:format>image/svg+xml</dc:format>
        <dc:type
           rdf:resource="http://purl.org/dc/dcmitype/StillImage" />
        <dc:title></dc:title>
      </cc:Work>
    </rdf:RDF>
  </metadata>
  <g
     inkscape:label="Layer 1"
     inkscape:groupmode="layer"
     id="layer1"
     transform="translate(0,-187)">
    <path
       style="opacity:1;fill:#bae8f7;fill-opacity:1;stroke:none;stroke-width:0.12071752;stroke-linecap:round;stroke-linejoin:round;stroke-miterlimit:4;stroke-dasharray:none;stroke-dashoffset:0;stroke-opacity:1;paint-order:stroke fill markers"
       d="m 81.126935,188.44353 -0.484718,14.81536 c 0,0 -1.720638,0.64473 -2.336795,1.28539 -0.378564,0.39361 -0.718787,1.00054 -0.973287,1.52767 h -2.67044 v 55.94001 h -1.293432 v -35.46188 h -6.81753 v 35.46188 H 64.199157 V 226.329 h -6.45367 l -4.008221,-9.56263 -4.550162,9.56263 h -5.676449 v 35.68296 h -0.822864 v -19.96461 h -8.934459 v 19.96461 h -1.528078 v -16.42273 h -3.761373 v 16.42273 h -4.290437 v -25.4995 H 18.53042 v 25.4995 h -0.587569 v -17.64 h -7.875672 v 17.64 H 8.5976073 V 234.07729 H 3.5428008 v -7.19494 H 0.72193644 v 35.12961 H 0.13371925 v 44.89272 H 212.66687 v -44.89272 h -1.76333 v -36.56861 h -2.46858 v 36.56861 h -17.39772 v -38.56093 h -7.99329 v 38.56093 h -1.64575 v -46.64151 h -0.38892 c -0.11207,-0.50628 -0.46219,-1.90184 -1.04722,-2.44931 -0.52117,-0.48773 -1.99608,-0.6999 -1.99608,-0.6999 l -0.59914,-13.97406 -0.41143,13.76263 c 0,-2e-5 -1.46064,0.59836 -1.98386,1.19348 -0.52743,0.59992 -0.9626,1.70908 -1.12888,2.16716 h -0.43777 v 46.64151 h -9.75668 v -35.35135 h -7.99396 v 35.35135 h -5.99468 v -28.37748 h -8.93445 v 28.37748 h -5.40709 v -46.9738 h -8.93382 v 8.85568 h -6.46523 v -5.09206 h -11.75532 v 43.21018 h -1.99866 v -21.07134 h -3.76137 v -5.7566 h -4.937157 v -3.87416 h -7.170458 v 6.75213 H 87.592159 V 206.07195 H 85.18208 c -0.217787,-0.65915 -0.551331,-1.44871 -0.999,-1.83167 -0.613782,-0.52505 -2.35093,-0.75386 -2.35093,-0.75386 z"
       id="rect1084"
       inkscape:connector-curvature="0" />
  </g>
</svg>
