<?xml version="1.0" encoding="UTF-8" standalone="no"?>
<svg xmlns:dc="http://purl.org/dc/elements/1.1/" xmlns:cc="http://creativecommons.org/ns#" xmlns:rdf="http://www.w3.org/1999/02/22-rdf-syntax-ns#" xmlns:svg="http://www.w3.org/2000/svg" xmlns="http://www.w3.org/2000/svg" xmlns:sodipodi="http://sodipodi.sourceforge.net/DTD/sodipodi-0.dtd" xmlns:inkscape="http://www.inkscape.org/namespaces/inkscape" width="55mm" height="90mm" viewBox="0 0 55 90" version="1.1" id="svg8" sodipodi:docname="sailoruchiha2.svg" inkscape:version="1.0.2-2 (e86c870879, 2021-01-15)">
    <defs id="defs2" />
    <sodipodi:namedview id="base" pagecolor="#ffffff" bordercolor="#666666" borderopacity="1.0" inkscape:pageopacity="0.0" inkscape:pageshadow="2" inkscape:zoom="0.98994949" inkscape:cx="476.35201" inkscape:cy="296.41571" inkscape:document-units="mm" inkscape:current-layer="layer1" showgrid="false" showguides="false" inkscape:window-width="1837" inkscape:window-height="958" inkscape:window-x="1229" inkscape:window-y="1234" inkscape:window-maximized="0" inkscape:document-rotation="0" />
    <metadata id="metadata5">
        <rdf:RDF>
            <cc:Work rdf:about="">
                <dc:format>image/svg+xml</dc:format>
                <dc:type rdf:resource="http://purl.org/dc/dcmitype/StillImage" />
                <dc:title></dc:title>
            </cc:Work>
        </rdf:RDF>
    </metadata>
    <g inkscape:label="Layer 1" inkscape:groupmode="layer" id="layer1" transform="translate(-48,-207)">
        <g id="g1062" style="fill:#602700;fill-opacity:1;stroke:none" transform="matrix(1.1445585,0,0,1.105964,-0.04179204,46.648376)">
            <path sodipodi:nodetypes="aaaaaaaaaaaaaaa" inkscape:connector-curvature="0" id="path1047" d="m 53.520723,189.15674 c 0.488162,-2.33644 2.568505,-4.24292 4.610399,-5.47902 3.356176,-2.03173 7.60549,-3.07036 11.49259,-2.53906 1.549902,0.21184 2.985659,1.15217 4.142676,2.20497 1.973792,1.796 3.976169,4.04862 4.409948,6.68174 0.37057,2.24943 -0.69305,4.58837 -1.737252,6.61492 -1.274826,2.47413 -3.573241,4.26831 -5.34539,6.41447 -0.403107,0.48818 -1.193743,0.83694 -1.202714,1.46998 -0.02273,1.60361 2.234834,2.36815 2.939966,3.80859 0.586655,1.19842 1.458205,2.62142 1.00226,3.87541 -0.720169,1.98068 -3.079021,3.25815 -5.144939,3.67496 -2.775395,0.55995 -6.478575,0.309 -8.285353,-1.87089 -2.005286,-2.41939 0.59015,-6.41785 -0.33409,-9.42125 -0.688829,-2.23841 -2.77697,-3.81271 -3.741771,-5.94675 -1.358684,-3.00527 -3.480856,-6.25965 -2.80633,-9.48807 z" style="fill:#602700;fill-opacity:1;stroke:none;stroke-width:0.26458332px;stroke-linecap:butt;stroke-linejoin:miter;stroke-opacity:1" />
        </g>
        <g id="g973" style="stroke:none" transform="matrix(1.1445585,0,0,1.105964,-0.04179204,46.648376)">
            <path sodipodi:nodetypes="aaaaaaaaaaaaaaaaaaaaaaaaaaaaaa" inkscape:connector-curvature="0" id="path948" d="m 65.059152,181.859 c 0.303698,-3.88848 0.425194,-7.79294 0.850445,-11.67001 0.189171,-1.7247 0.672178,-3.41691 0.755954,-5.14993 0.04644,-0.96073 -0.421288,-1.96174 -0.141743,-2.88207 0.199566,-0.65702 0.632959,-1.31169 1.228424,-1.65364 0.371017,-0.21306 1.03869,0.21446 1.27567,-0.14175 0.463734,-0.69705 -0.555729,-1.58647 -0.708705,-2.40959 -0.141475,-0.76124 -0.473696,-1.59508 -0.18899,-2.31511 0.25009,-0.63248 0.89308,-1.08797 1.511906,-1.37016 0.360806,-0.16453 0.842488,0.0645 1.181174,-0.14174 0.910304,-0.55438 0.938301,-2.01229 1.795389,-2.64584 0.516771,-0.38199 1.200577,-0.53984 1.842632,-0.56696 0.740715,-0.0313 1.432471,0.44573 2.173364,0.47247 0.556449,0.0201 1.114775,-0.096 1.653646,-0.23624 0.636871,-0.1657 1.185163,-0.68051 1.842633,-0.7087 1.359469,-0.0583 2.831774,0.31904 3.921503,1.13393 0.703257,0.52589 1.129033,1.39117 1.41741,2.22061 0.358692,1.03168 0.549076,2.18983 0.330729,3.26004 -0.176136,0.86332 -0.566005,1.79288 -1.275667,2.31511 -0.430446,0.31676 -1.042659,0.23944 -1.570818,0.32109 -1.216876,0.18812 -2.466398,0.14505 -3.673602,0.38761 -0.322405,0.0648 -0.759183,0.0121 -0.944941,0.28348 -0.339108,0.49538 0.230409,1.20165 0.14174,1.79539 -0.0825,0.55246 -0.307935,1.09201 -0.614212,1.55915 -0.476271,0.72642 -1.138819,1.33356 -1.842632,1.84264 -1.700634,1.23009 -3.9903,1.51514 -5.622396,2.83482 -1.210673,0.97892 -2.311426,2.20897 -2.929321,3.63803 -1.722778,3.98443 1.833811,10.5167 -1.795381,12.89843 -0.245977,0.16143 -0.682298,0.005 -0.850447,-0.23624 -0.54192,-0.7781 0.162403,-1.88948 0.236236,-2.83482 z" style="fill:#009544;fill-opacity:1;stroke:none;stroke-width:0.26458332px;stroke-linecap:butt;stroke-linejoin:miter;stroke-opacity:1" />
            <path sodipodi:nodetypes="caaaaaaaaaaaaaaccaaaaaaaacc" inkscape:connector-curvature="0" id="path950" d="m 43.089284,156.15662 c 0,0 1.546212,-0.3018 2.315105,-0.47247 1.581139,-0.35097 3.110015,-1.00759 4.724704,-1.13393 1.386054,-0.10845 2.809622,-0.009 4.157736,0.33073 0.417104,0.10515 0.754863,0.46237 1.181177,0.51972 1.278081,0.17192 2.588322,-0.92573 3.827007,-0.56697 0.718667,0.20815 1.228399,0.88452 1.700893,1.46466 0.614376,0.75434 0.679114,1.91778 1.417412,2.55134 0.344116,0.2953 0.903299,0.21371 1.27567,0.47247 0.614419,0.42696 1.258513,0.98165 1.464657,1.70089 0.228292,0.79651 -0.08296,1.68256 -0.377976,2.45685 -0.2473,0.64905 -1.184668,1.05543 -1.13393,1.74814 0.03831,0.52307 0.61859,0.8682 1.039437,1.18118 0.333635,0.24812 0.845474,0.22026 1.133927,0.51971 0.342907,0.35598 0.48173,0.88329 0.566965,1.37016 0.831914,4.75197 -0.661458,14.45759 -0.661458,14.45759 L 65.059152,181.859 c 0,0 -0.487642,-3.17857 -1.13393,-4.63021 -0.557865,-1.25304 -1.225887,-2.56816 -2.315104,-3.40178 -0.344101,-0.26335 -0.880249,-0.16728 -1.228421,-0.42523 -1.20484,-0.89262 -1.408376,-2.7912 -2.645833,-3.63802 -0.712474,-0.48756 -1.738698,-0.26208 -2.504094,-0.66146 -0.60427,-0.31531 -1.264576,-0.70827 -1.559152,-1.32291 -0.510677,-1.06554 0.476892,-2.50927 -0.09449,-3.54353 -1.20819,-2.18695 -4.042569,-2.96248 -6.236607,-4.15774 -1.145882,-0.62425 -3.590774,-1.55915 -3.590774,-1.55915 z" style="fill:#009544;fill-opacity:1;stroke:none;stroke-width:0.26458332px;stroke-linecap:butt;stroke-linejoin:miter;stroke-opacity:1" />
            <path sodipodi:nodetypes="cccccaaaaaaaaaaaaaaaacc" inkscape:connector-curvature="0" id="path944" d="m 67.090773,184.41034 2.078869,-7.32329 7.181548,-8.59896 3.401785,-1.08668 4.299479,-0.23623 c 0,0 0.306601,-0.25645 0.283482,-0.42523 -0.121245,-0.88513 -1.290013,-1.24996 -2.031621,-1.74814 -0.660681,-0.44382 -1.34977,-0.91131 -2.126118,-1.08668 -1.09113,-0.24648 -2.238495,0.0186 -3.354538,0.0945 -0.584757,0.0398 -1.162039,0.19215 -1.748139,0.18899 -0.666119,-0.004 -1.331376,-0.36783 -1.984375,-0.23623 -0.656821,0.13237 -1.26402,0.52898 -1.748139,0.99219 -0.685118,0.65553 -0.803697,1.77908 -1.511906,2.40959 -0.273595,0.24358 -0.645825,0.35323 -0.992188,0.47247 -0.274582,0.0945 -0.640971,-0.0121 -0.850444,0.18899 -0.575914,0.55296 -0.532982,1.52085 -0.614212,2.31511 -0.05777,0.56489 -0.05579,1.1533 0.09449,1.70089 0.225568,0.82195 0.93303,1.45244 1.181177,2.26786 0.08304,0.27287 0.269885,0.62552 0.09449,0.85044 -0.215034,0.27575 -0.755105,-0.0618 -1.039434,0.14174 -0.343609,0.246 -0.452349,0.72718 -0.566965,1.13393 -0.698817,2.47996 -0.661458,7.70127 -0.661458,7.70127 z" style="fill:#3abd00;fill-opacity:1;stroke:none;stroke-width:0.26458332px;stroke-linecap:butt;stroke-linejoin:miter;stroke-opacity:1" />
            <path sodipodi:nodetypes="aaaaaaaaaaaaacaaaaaacca" inkscape:connector-curvature="0" id="path946" d="m 63.877975,183.79613 c -0.452355,-1.09883 -1.515911,-1.85877 -2.031622,-2.92932 -0.856307,-1.77759 -1.30062,-3.73757 -1.700892,-5.66964 -0.273442,-1.31987 -0.106767,-2.71866 -0.472472,-4.016 -0.244716,-0.86813 -0.973127,-1.56933 -1.133927,-2.45684 -0.07602,-0.41956 0.03393,-0.8536 0.09449,-1.27567 0.160136,-1.11603 1.165158,-2.27636 0.708705,-3.30729 -0.228561,-0.51622 -0.9748,-0.56981 -1.464657,-0.85045 -0.361031,-0.20684 -0.798639,-0.31395 -1.08668,-0.61421 -0.526604,-0.54895 -0.459807,-1.53899 -1.039434,-2.03162 -0.352939,-0.29997 -0.86174,-0.38207 -1.322917,-0.42523 -0.505681,-0.0473 -1.004085,0.19739 -1.511906,0.18899 -1.004472,-0.0166 -1.989601,-0.65994 -2.976562,-0.47247 -0.700541,0.13307 -1.842636,1.08668 -1.842636,1.08668 0,0 0.172529,1.60594 0.708708,2.12612 0.826093,0.80144 2.311385,0.41521 3.307292,0.99219 1.445899,0.83768 2.610248,2.13145 3.638021,3.44903 1.145015,1.46788 2.00633,3.1556 2.740326,4.86644 0.571568,1.33225 0.977522,2.73905 1.27567,4.15774 0.361988,1.72246 0.06165,3.57332 0.614212,5.24442 0.416402,1.25932 1.984375,3.44903 1.984375,3.44903 l 1.795386,0.0945 c 0,0 -0.07649,-1.1036 -0.28348,-1.6064 z" style="fill:#3cb649;fill-opacity:1;stroke:none;stroke-width:0.26458332px;stroke-linecap:butt;stroke-linejoin:miter;stroke-opacity:1" />
        </g>
        <path style="fill:#d42767;fill-opacity:1;stroke:none;stroke-width:0.29768157px;stroke-linecap:butt;stroke-linejoin:miter;stroke-opacity:1" d="m 66.186771,262.49971 c -0.591415,-1.18385 -1.004663,-2.53081 -0.917718,-3.84268 0.09382,-1.41556 0.71973,-2.80737 1.529529,-3.99048 0.875123,-1.27853 2.067731,-2.42274 3.459992,-3.15749 1.792289,-0.94586 3.907145,-1.52591 5.946604,-1.42415 1.650863,0.0824 3.292152,0.73607 4.665062,1.62574 1.199158,0.77709 2.057055,1.97526 2.906103,3.1037 0.691675,0.9193 1.523548,1.84233 1.758955,2.9559 0.344257,1.62849 -0.02903,3.38735 -0.611809,4.95115 -0.462379,1.24072 -1.238657,2.40681 -2.217817,3.32539 -1.121798,1.0524 -2.56294,1.78408 -4.016135,2.34154 -0.896908,0.34407 -1.864695,0.57966 -2.829627,0.59119 -0.544917,0.006 -1.084398,-0.14309 -1.606004,-0.29559 -1.548938,-0.45286 -3.183246,-0.87946 -4.472744,-1.82427 -1.532242,-1.12266 -2.758444,-2.68663 -3.594391,-4.35995 z" id="path909" inkscape:connector-curvature="0" sodipodi:nodetypes="aaaaaaaaaaaaaaa" />
        <path style="fill:#000000;fill-opacity:0.15686275;stroke:none;stroke-width:0.29768157px;stroke-linecap:butt;stroke-linejoin:miter;stroke-opacity:1" d="m 66.04518,255.95486 c -0.421371,0.85614 -0.714445,1.77333 -0.776004,2.70216 -0.08696,1.31187 0.325949,2.65907 0.917365,3.84293 0.835945,1.67331 2.062102,3.2369 3.594346,4.35957 1.289497,0.9448 2.924325,1.37144 4.473262,1.8243 0.521605,0.1525 1.060915,0.30212 1.605832,0.29547 0.964933,-0.0115 1.932672,-0.24689 2.829582,-0.59096 1.453192,-0.55746 2.894262,-1.28912 4.016058,-2.34151 0.979162,-0.91859 1.755624,-2.08499 2.218001,-3.32569 0.582784,-1.56382 0.955835,-3.32263 0.611576,-4.95111 -0.008,-0.0378 -0.02201,-0.0735 -0.03135,-0.11087 -0.490999,1.76171 -1.216928,3.40159 -2.103257,4.72992 -1.167862,1.75024 -2.668214,2.96722 -4.18108,3.89435 -0.93374,0.57223 -1.940949,0.96442 -2.945508,0.9836 -0.567289,0.0114 -1.12905,-0.23847 -1.672076,-0.49209 -1.612542,-0.75317 -3.314167,-1.46233 -4.656618,-3.03365 -1.59516,-1.86711 -2.871348,-4.46855 -3.74162,-7.25147 -0.05492,-0.1756 -0.106785,-0.35526 -0.158514,-0.53495 z" id="path909-6" inkscape:connector-curvature="0" />
        <path style="fill:#ffffff;fill-opacity:1;stroke:none;stroke-width:0.29768157px;stroke-linecap:butt;stroke-linejoin:miter;stroke-opacity:1" d="m 72.304883,268.41152 -0.688289,-0.81288 1.835434,-0.1478 0.688288,-1.25625 1.529531,1.47794 1.988385,-1.33015 0.07648,1.47796 1.07067,-0.59118 0.535337,1.10846 c 0,0 -1.028779,0.46019 -1.453054,0.81287 -0.494966,0.41145 -0.977501,0.8936 -1.223622,1.47795 -0.685574,1.62775 -0.535335,5.24673 -0.535335,5.24673 l 1.070671,0.81288 -1.070671,0.36949 c 0,0 0.225926,1.50265 0.611813,2.14302 0.453513,0.75261 1.049297,1.59508 1.911909,1.84745 0.373222,0.10916 0.797758,-0.0543 1.147144,-0.22169 0.517824,-0.24801 1.3001,-1.10847 1.3001,-1.10847 l 0.152954,0.44339 c 0,0 -0.516554,1.00155 -0.994195,1.25626 -0.739552,0.39442 -1.710396,0.44212 -2.523721,0.22169 -0.824726,-0.2235 -1.525593,-0.8349 -2.06486,-1.47795 -0.617638,-0.7365 -0.985993,-1.66669 -1.223622,-2.58642 -0.20414,-0.79011 -0.152955,-2.43862 -0.152955,-2.43862 l -1.070671,0.0738 0.68829,-1.18237 0.458859,-3.25148 c 0,0 -0.09892,-0.96038 -0.382382,-1.33018 -0.39566,-0.51616 -1.682488,-1.03453 -1.682488,-1.03453 z" id="path942" inkscape:connector-curvature="0" sodipodi:nodetypes="cccccccccsscccaaaccssssccccsc" />
    </g>
</svg>